<mxfile host="drawio-plugin" modified="2023-12-30T08:34:03.090Z" agent="5.0 (Windows NT 6.2; Win64; x64) AppleWebKit/537.36 (KHTML, like Gecko) Chrome/104.0.5112.102 Safari/537.36" etag="LDU2p-xLgg287tbkMD9i" version="20.5.3" type="embed"><diagram id="C5RBs43oDa-KdzZeNtuy" name="Page-1"><mxGraphModel dx="2806" dy="1838" grid="1" gridSize="10" guides="1" tooltips="1" connect="1" arrows="1" fold="1" page="1" pageScale="1" pageWidth="827" pageHeight="1169" math="0" shadow="0"><root><mxCell id="WIyWlLk6GJQsqaUBKTNV-0"/><mxCell id="WIyWlLk6GJQsqaUBKTNV-1" parent="WIyWlLk6GJQsqaUBKTNV-0"/><mxCell id="XPo56Mp7-HnKYEz6nt2U-4" value="Bilgisayar" style="swimlane;fontStyle=1;align=center;verticalAlign=top;childLayout=stackLayout;horizontal=1;startSize=26;horizontalStack=0;resizeParent=1;resizeParentMax=0;resizeLast=0;collapsible=1;marginBottom=0;whiteSpace=wrap;html=1;strokeColor=#994C00;" parent="WIyWlLk6GJQsqaUBKTNV-1" vertex="1"><mxGeometry x="-470" y="37" width="240" height="464" as="geometry"/></mxCell><mxCell id="XPo56Mp7-HnKYEz6nt2U-5" value="- Ram: IRam" style="text;strokeColor=none;fillColor=none;align=left;verticalAlign=top;spacingLeft=4;spacingRight=4;overflow=hidden;rotatable=0;points=[[0,0.5],[1,0.5]];portConstraint=eastwest;whiteSpace=wrap;html=1;" parent="XPo56Mp7-HnKYEz6nt2U-4" vertex="1"><mxGeometry y="26" width="240" height="26" as="geometry"/></mxCell><mxCell id="XPo56Mp7-HnKYEz6nt2U-10" value="- Yazıcı: IYazıcı Bunlar List olabilir" style="text;strokeColor=none;fillColor=none;align=left;verticalAlign=top;spacingLeft=4;spacingRight=4;overflow=hidden;rotatable=0;points=[[0,0.5],[1,0.5]];portConstraint=eastwest;whiteSpace=wrap;html=1;" parent="XPo56Mp7-HnKYEz6nt2U-4" vertex="1"><mxGeometry y="52" width="240" height="26" as="geometry"/></mxCell><mxCell id="XPo56Mp7-HnKYEz6nt2U-11" value="- Tarayıcı&amp;nbsp;:ITarayıcı" style="text;strokeColor=none;fillColor=none;align=left;verticalAlign=top;spacingLeft=4;spacingRight=4;overflow=hidden;rotatable=0;points=[[0,0.5],[1,0.5]];portConstraint=eastwest;whiteSpace=wrap;html=1;" parent="XPo56Mp7-HnKYEz6nt2U-4" vertex="1"><mxGeometry y="78" width="240" height="26" as="geometry"/></mxCell><mxCell id="XPo56Mp7-HnKYEz6nt2U-12" value="- Modem: IModem" style="text;strokeColor=none;fillColor=none;align=left;verticalAlign=top;spacingLeft=4;spacingRight=4;overflow=hidden;rotatable=0;points=[[0,0.5],[1,0.5]];portConstraint=eastwest;whiteSpace=wrap;html=1;" parent="XPo56Mp7-HnKYEz6nt2U-4" vertex="1"><mxGeometry y="104" width="240" height="26" as="geometry"/></mxCell><mxCell id="XPo56Mp7-HnKYEz6nt2U-13" value="- Ekran: IEkran" style="text;strokeColor=none;fillColor=none;align=left;verticalAlign=top;spacingLeft=4;spacingRight=4;overflow=hidden;rotatable=0;points=[[0,0.5],[1,0.5]];portConstraint=eastwest;whiteSpace=wrap;html=1;" parent="XPo56Mp7-HnKYEz6nt2U-4" vertex="1"><mxGeometry y="130" width="240" height="26" as="geometry"/></mxCell><mxCell id="ehvPjeEVP9A8o2XFfIN3-17" value="- Operating System: OS" style="text;strokeColor=none;fillColor=none;align=left;verticalAlign=top;spacingLeft=4;spacingRight=4;overflow=hidden;rotatable=0;points=[[0,0.5],[1,0.5]];portConstraint=eastwest;whiteSpace=wrap;html=1;" parent="XPo56Mp7-HnKYEz6nt2U-4" vertex="1"><mxGeometry y="156" width="240" height="26" as="geometry"/></mxCell><mxCell id="ehvPjeEVP9A8o2XFfIN3-26" value="- CPU: ICPU" style="text;strokeColor=none;fillColor=none;align=left;verticalAlign=top;spacingLeft=4;spacingRight=4;overflow=hidden;rotatable=0;points=[[0,0.5],[1,0.5]];portConstraint=eastwest;whiteSpace=wrap;html=1;" parent="XPo56Mp7-HnKYEz6nt2U-4" vertex="1"><mxGeometry y="182" width="240" height="26" as="geometry"/></mxCell><mxCell id="XPo56Mp7-HnKYEz6nt2U-6" value="" style="line;strokeWidth=1;fillColor=none;align=left;verticalAlign=middle;spacingTop=-1;spacingLeft=3;spacingRight=3;rotatable=0;labelPosition=right;points=[];portConstraint=eastwest;strokeColor=inherit;" parent="XPo56Mp7-HnKYEz6nt2U-4" vertex="1"><mxGeometry y="208" width="240" height="8" as="geometry"/></mxCell><mxCell id="XPo56Mp7-HnKYEz6nt2U-7" value="+ baslatDugmesi(): void" style="text;strokeColor=none;fillColor=none;align=left;verticalAlign=top;spacingLeft=4;spacingRight=4;overflow=hidden;rotatable=0;points=[[0,0.5],[1,0.5]];portConstraint=eastwest;whiteSpace=wrap;html=1;" parent="XPo56Mp7-HnKYEz6nt2U-4" vertex="1"><mxGeometry y="216" width="240" height="26" as="geometry"/></mxCell><mxCell id="XPo56Mp7-HnKYEz6nt2U-8" value="+ kapatDugmesi(): void" style="text;strokeColor=none;fillColor=none;align=left;verticalAlign=top;spacingLeft=4;spacingRight=4;overflow=hidden;rotatable=0;points=[[0,0.5],[1,0.5]];portConstraint=eastwest;whiteSpace=wrap;html=1;" parent="XPo56Mp7-HnKYEz6nt2U-4" vertex="1"><mxGeometry y="242" width="240" height="26" as="geometry"/></mxCell><mxCell id="XPo56Mp7-HnKYEz6nt2U-103" value="- LoadOperatingSystem(): bool&lt;br&gt;OS'in icerisindeki bilgisayar sınıfı ile bağlantılı field'ların bilgisayar sınıfına aktarılması constructor'ı ile yani OS&amp;nbsp; sınıfının instance'i olusturulacak ve Bilgisayar sınıfındaki field'a atanacak.&lt;br&gt;OSFactory ile OS'in geri kalan elemanlarina atama yapialcak" style="text;strokeColor=none;fillColor=none;align=left;verticalAlign=top;spacingLeft=4;spacingRight=4;overflow=hidden;rotatable=0;points=[[0,0.5],[1,0.5]];portConstraint=eastwest;whiteSpace=wrap;html=1;" parent="XPo56Mp7-HnKYEz6nt2U-4" vertex="1"><mxGeometry y="268" width="240" height="126" as="geometry"/></mxCell><mxCell id="XPo56Mp7-HnKYEz6nt2U-120" value="+ Constructor(): attribute&lt;br&gt;dokümanda istenilen kaynaklarla bilgisayarı baslat. Ancak OS'i load OS methodu baslatacak" style="text;strokeColor=none;fillColor=none;align=left;verticalAlign=top;spacingLeft=4;spacingRight=4;overflow=hidden;rotatable=0;points=[[0,0.5],[1,0.5]];portConstraint=eastwest;whiteSpace=wrap;html=1;" parent="XPo56Mp7-HnKYEz6nt2U-4" vertex="1"><mxGeometry y="394" width="240" height="70" as="geometry"/></mxCell><mxCell id="XPo56Mp7-HnKYEz6nt2U-14" value="&lt;p style=&quot;margin:0px;margin-top:4px;text-align:center;&quot;&gt;&lt;i&gt;&amp;lt;&amp;lt;Interface&amp;gt;&amp;gt;&lt;/i&gt;&lt;br&gt;&lt;b&gt;IIODevice&lt;/b&gt;&lt;/p&gt;&lt;hr size=&quot;1&quot;&gt;&lt;p style=&quot;margin:0px;margin-left:4px;&quot;&gt;&amp;nbsp;+ CheckStatus(): bool&lt;br&gt;&lt;/p&gt;&lt;p style=&quot;margin:0px;margin-left:4px;&quot;&gt;&amp;nbsp;+ Allocate(): bool&lt;br&gt;&lt;/p&gt;&lt;p style=&quot;margin:0px;margin-left:4px;&quot;&gt;&lt;br&gt;&lt;/p&gt;&amp;nbsp;+&amp;nbsp; CheckWhichProcessUsingTheDevice(): int" style="verticalAlign=top;align=left;overflow=fill;fontSize=12;fontFamily=Helvetica;html=1;whiteSpace=wrap;strokeColor=#FF0080;" parent="WIyWlLk6GJQsqaUBKTNV-1" vertex="1"><mxGeometry x="-430" y="-350" width="318" height="110" as="geometry"/></mxCell><mxCell id="XPo56Mp7-HnKYEz6nt2U-18" value="Process" style="swimlane;fontStyle=1;align=center;verticalAlign=top;childLayout=stackLayout;horizontal=1;startSize=26;horizontalStack=0;resizeParent=1;resizeParentMax=0;resizeLast=0;collapsible=1;marginBottom=0;whiteSpace=wrap;html=1;strokeColor=#FF6666;" parent="WIyWlLk6GJQsqaUBKTNV-1" vertex="1"><mxGeometry x="413" y="-78" width="270" height="190" as="geometry"/></mxCell><mxCell id="XPo56Mp7-HnKYEz6nt2U-19" value="- oncelik: int" style="text;strokeColor=#FF6666;fillColor=none;align=left;verticalAlign=top;spacingLeft=4;spacingRight=4;overflow=hidden;rotatable=0;points=[[0,0.5],[1,0.5]];portConstraint=eastwest;whiteSpace=wrap;html=1;" parent="XPo56Mp7-HnKYEz6nt2U-18" vertex="1"><mxGeometry y="26" width="270" height="26" as="geometry"/></mxCell><mxCell id="ojoNzWy3ps6btbPR5Wlg-29" value="- processString: string[]" style="text;strokeColor=none;fillColor=none;align=left;verticalAlign=top;spacingLeft=4;spacingRight=4;overflow=hidden;rotatable=0;points=[[0,0.5],[1,0.5]];portConstraint=eastwest;whiteSpace=wrap;html=1;" parent="XPo56Mp7-HnKYEz6nt2U-18" vertex="1"><mxGeometry y="52" width="270" height="26" as="geometry"/></mxCell><mxCell id="ehvPjeEVP9A8o2XFfIN3-50" value="- process id: int" style="text;strokeColor=none;fillColor=none;align=left;verticalAlign=top;spacingLeft=4;spacingRight=4;overflow=hidden;rotatable=0;points=[[0,0.5],[1,0.5]];portConstraint=eastwest;whiteSpace=wrap;html=1;" parent="XPo56Mp7-HnKYEz6nt2U-18" vertex="1"><mxGeometry y="78" width="270" height="26" as="geometry"/></mxCell><mxCell id="XPo56Mp7-HnKYEz6nt2U-20" value="" style="line;strokeWidth=1;fillColor=none;align=left;verticalAlign=middle;spacingTop=-1;spacingLeft=3;spacingRight=3;rotatable=0;labelPosition=right;points=[];portConstraint=eastwest;strokeColor=inherit;" parent="XPo56Mp7-HnKYEz6nt2U-18" vertex="1"><mxGeometry y="104" width="270" height="8" as="geometry"/></mxCell><mxCell id="XPo56Mp7-HnKYEz6nt2U-21" value="+ getOncelik(): int" style="text;strokeColor=none;fillColor=none;align=left;verticalAlign=top;spacingLeft=4;spacingRight=4;overflow=hidden;rotatable=0;points=[[0,0.5],[1,0.5]];portConstraint=eastwest;whiteSpace=wrap;html=1;" parent="XPo56Mp7-HnKYEz6nt2U-18" vertex="1"><mxGeometry y="112" width="270" height="26" as="geometry"/></mxCell><mxCell id="ojoNzWy3ps6btbPR5Wlg-21" value="+ get ve set: herbiri için" style="text;strokeColor=none;fillColor=none;align=left;verticalAlign=top;spacingLeft=4;spacingRight=4;overflow=hidden;rotatable=0;points=[[0,0.5],[1,0.5]];portConstraint=eastwest;whiteSpace=wrap;html=1;" parent="XPo56Mp7-HnKYEz6nt2U-18" vertex="1"><mxGeometry y="138" width="270" height="26" as="geometry"/></mxCell><mxCell id="ehvPjeEVP9A8o2XFfIN3-51" value="+ getProcessID(): int" style="text;strokeColor=none;fillColor=none;align=left;verticalAlign=top;spacingLeft=4;spacingRight=4;overflow=hidden;rotatable=0;points=[[0,0.5],[1,0.5]];portConstraint=eastwest;whiteSpace=wrap;html=1;" parent="XPo56Mp7-HnKYEz6nt2U-18" vertex="1"><mxGeometry y="164" width="270" height="26" as="geometry"/></mxCell><mxCell id="XPo56Mp7-HnKYEz6nt2U-22" value="Dispatcher ( Görevlendirici )" style="swimlane;fontStyle=1;align=center;verticalAlign=top;childLayout=stackLayout;horizontal=1;startSize=26;horizontalStack=0;resizeParent=1;resizeParentMax=0;resizeLast=0;collapsible=1;marginBottom=0;whiteSpace=wrap;html=1;strokeColor=#3399FF;" parent="WIyWlLk6GJQsqaUBKTNV-1" vertex="1"><mxGeometry x="1050" y="330" width="250" height="264" as="geometry"/></mxCell><mxCell id="XPo56Mp7-HnKYEz6nt2U-23" value="- Cpu: ICPU&amp;nbsp;&lt;br&gt;Olustururken ata" style="text;strokeColor=none;fillColor=none;align=left;verticalAlign=top;spacingLeft=4;spacingRight=4;overflow=hidden;rotatable=0;points=[[0,0.5],[1,0.5]];portConstraint=eastwest;whiteSpace=wrap;html=1;" parent="XPo56Mp7-HnKYEz6nt2U-22" vertex="1"><mxGeometry y="26" width="250" height="44" as="geometry"/></mxCell><mxCell id="ojoNzWy3ps6btbPR5Wlg-20" value="- RAM: IRAM" style="text;strokeColor=none;fillColor=none;align=left;verticalAlign=top;spacingLeft=4;spacingRight=4;overflow=hidden;rotatable=0;points=[[0,0.5],[1,0.5]];portConstraint=eastwest;whiteSpace=wrap;html=1;" parent="XPo56Mp7-HnKYEz6nt2U-22" vertex="1"><mxGeometry y="70" width="250" height="26" as="geometry"/></mxCell><mxCell id="XPo56Mp7-HnKYEz6nt2U-24" value="" style="line;strokeWidth=1;fillColor=none;align=left;verticalAlign=middle;spacingTop=-1;spacingLeft=3;spacingRight=3;rotatable=0;labelPosition=right;points=[];portConstraint=eastwest;strokeColor=inherit;" parent="XPo56Mp7-HnKYEz6nt2U-22" vertex="1"><mxGeometry y="96" width="250" height="8" as="geometry"/></mxCell><mxCell id="XPo56Mp7-HnKYEz6nt2U-25" value="- ProcessYurut(): type" style="text;strokeColor=none;fillColor=none;align=left;verticalAlign=top;spacingLeft=4;spacingRight=4;overflow=hidden;rotatable=0;points=[[0,0.5],[1,0.5]];portConstraint=eastwest;whiteSpace=wrap;html=1;" parent="XPo56Mp7-HnKYEz6nt2U-22" vertex="1"><mxGeometry y="104" width="250" height="26" as="geometry"/></mxCell><mxCell id="XPo56Mp7-HnKYEz6nt2U-86" value="+ ContextSwitch(Process): Process&lt;br&gt;Yeni prosessi yürütmeye koyarken eski processi geri döndürecek" style="text;strokeColor=none;fillColor=none;align=left;verticalAlign=top;spacingLeft=4;spacingRight=4;overflow=hidden;rotatable=0;points=[[0,0.5],[1,0.5]];portConstraint=eastwest;whiteSpace=wrap;html=1;" parent="XPo56Mp7-HnKYEz6nt2U-22" vertex="1"><mxGeometry y="130" width="250" height="56" as="geometry"/></mxCell><mxCell id="XPo56Mp7-HnKYEz6nt2U-53" value="- ProcessYukle(): attribute" style="text;strokeColor=none;fillColor=none;align=left;verticalAlign=top;spacingLeft=4;spacingRight=4;overflow=hidden;rotatable=0;points=[[0,0.5],[1,0.5]];portConstraint=eastwest;whiteSpace=wrap;html=1;" parent="XPo56Mp7-HnKYEz6nt2U-22" vertex="1"><mxGeometry y="186" width="250" height="26" as="geometry"/></mxCell><mxCell id="XPo56Mp7-HnKYEz6nt2U-52" value="- ProcessDurumKaydet(): attribute" style="text;strokeColor=none;fillColor=none;align=left;verticalAlign=top;spacingLeft=4;spacingRight=4;overflow=hidden;rotatable=0;points=[[0,0.5],[1,0.5]];portConstraint=eastwest;whiteSpace=wrap;html=1;" parent="XPo56Mp7-HnKYEz6nt2U-22" vertex="1"><mxGeometry y="212" width="250" height="26" as="geometry"/></mxCell><mxCell id="XPo56Mp7-HnKYEz6nt2U-117" value="- Process Sonlandir(): attribute" style="text;strokeColor=none;fillColor=none;align=left;verticalAlign=top;spacingLeft=4;spacingRight=4;overflow=hidden;rotatable=0;points=[[0,0.5],[1,0.5]];portConstraint=eastwest;whiteSpace=wrap;html=1;" parent="XPo56Mp7-HnKYEz6nt2U-22" vertex="1"><mxGeometry y="238" width="250" height="26" as="geometry"/></mxCell><mxCell id="XPo56Mp7-HnKYEz6nt2U-30" value="Çizelgeleyici FCFS" style="swimlane;fontStyle=1;align=center;verticalAlign=top;childLayout=stackLayout;horizontal=1;startSize=26;horizontalStack=0;resizeParent=1;resizeParentMax=0;resizeLast=0;collapsible=1;marginBottom=0;whiteSpace=wrap;html=1;strokeColor=#3399FF;" parent="WIyWlLk6GJQsqaUBKTNV-1" vertex="1"><mxGeometry x="370" y="248" width="230" height="158" as="geometry"/></mxCell><mxCell id="XPo56Mp7-HnKYEz6nt2U-31" value="- RealTimeQueue : RealTimeQueue&amp;nbsp;&lt;br&gt;Bunu çizelgeleyici olustururken atayacaksin" style="text;strokeColor=none;fillColor=none;align=left;verticalAlign=top;spacingLeft=4;spacingRight=4;overflow=hidden;rotatable=0;points=[[0,0.5],[1,0.5]];portConstraint=eastwest;whiteSpace=wrap;html=1;" parent="XPo56Mp7-HnKYEz6nt2U-30" vertex="1"><mxGeometry y="26" width="230" height="54" as="geometry"/></mxCell><mxCell id="XPo56Mp7-HnKYEz6nt2U-32" value="" style="line;strokeWidth=1;fillColor=none;align=left;verticalAlign=middle;spacingTop=-1;spacingLeft=3;spacingRight=3;rotatable=0;labelPosition=right;points=[];portConstraint=eastwest;strokeColor=inherit;" parent="XPo56Mp7-HnKYEz6nt2U-30" vertex="1"><mxGeometry y="80" width="230" height="8" as="geometry"/></mxCell><mxCell id="XPo56Mp7-HnKYEz6nt2U-33" value="+ ProcessGetir(): Process" style="text;strokeColor=none;fillColor=none;align=left;verticalAlign=top;spacingLeft=4;spacingRight=4;overflow=hidden;rotatable=0;points=[[0,0.5],[1,0.5]];portConstraint=eastwest;whiteSpace=wrap;html=1;" parent="XPo56Mp7-HnKYEz6nt2U-30" vertex="1"><mxGeometry y="88" width="230" height="26" as="geometry"/></mxCell><mxCell id="XPo56Mp7-HnKYEz6nt2U-88" value="+ Cizelgele(Process): void" style="text;strokeColor=none;fillColor=none;align=left;verticalAlign=top;spacingLeft=4;spacingRight=4;overflow=hidden;rotatable=0;points=[[0,0.5],[1,0.5]];portConstraint=eastwest;whiteSpace=wrap;html=1;" parent="XPo56Mp7-HnKYEz6nt2U-30" vertex="1"><mxGeometry y="114" width="230" height="44" as="geometry"/></mxCell><mxCell id="XPo56Mp7-HnKYEz6nt2U-34" value="UserQueue" style="swimlane;fontStyle=1;align=center;verticalAlign=top;childLayout=stackLayout;horizontal=1;startSize=26;horizontalStack=0;resizeParent=1;resizeParentMax=0;resizeLast=0;collapsible=1;marginBottom=0;whiteSpace=wrap;html=1;strokeColor=#3399FF;" parent="WIyWlLk6GJQsqaUBKTNV-1" vertex="1"><mxGeometry x="150" y="398" width="170" height="138" as="geometry"/></mxCell><mxCell id="XPo56Mp7-HnKYEz6nt2U-35" value="+ Priority1: Queue&amp;lt;Process&amp;gt;" style="text;strokeColor=none;fillColor=none;align=left;verticalAlign=top;spacingLeft=4;spacingRight=4;overflow=hidden;rotatable=0;points=[[0,0.5],[1,0.5]];portConstraint=eastwest;whiteSpace=wrap;html=1;" parent="XPo56Mp7-HnKYEz6nt2U-34" vertex="1"><mxGeometry y="26" width="170" height="26" as="geometry"/></mxCell><mxCell id="XPo56Mp7-HnKYEz6nt2U-38" value="+ Priority2: Queue&amp;lt;Process&amp;gt;" style="text;strokeColor=none;fillColor=none;align=left;verticalAlign=top;spacingLeft=4;spacingRight=4;overflow=hidden;rotatable=0;points=[[0,0.5],[1,0.5]];portConstraint=eastwest;whiteSpace=wrap;html=1;" parent="XPo56Mp7-HnKYEz6nt2U-34" vertex="1"><mxGeometry y="52" width="170" height="26" as="geometry"/></mxCell><mxCell id="XPo56Mp7-HnKYEz6nt2U-39" value="+ Priority3: Queue&amp;lt;Process&amp;gt;" style="text;strokeColor=none;fillColor=none;align=left;verticalAlign=top;spacingLeft=4;spacingRight=4;overflow=hidden;rotatable=0;points=[[0,0.5],[1,0.5]];portConstraint=eastwest;whiteSpace=wrap;html=1;" parent="XPo56Mp7-HnKYEz6nt2U-34" vertex="1"><mxGeometry y="78" width="170" height="26" as="geometry"/></mxCell><mxCell id="XPo56Mp7-HnKYEz6nt2U-36" value="" style="line;strokeWidth=1;fillColor=none;align=left;verticalAlign=middle;spacingTop=-1;spacingLeft=3;spacingRight=3;rotatable=0;labelPosition=right;points=[];portConstraint=eastwest;strokeColor=inherit;" parent="XPo56Mp7-HnKYEz6nt2U-34" vertex="1"><mxGeometry y="104" width="170" height="8" as="geometry"/></mxCell><mxCell id="XPo56Mp7-HnKYEz6nt2U-37" value="+ method(type): type" style="text;strokeColor=none;fillColor=none;align=left;verticalAlign=top;spacingLeft=4;spacingRight=4;overflow=hidden;rotatable=0;points=[[0,0.5],[1,0.5]];portConstraint=eastwest;whiteSpace=wrap;html=1;" parent="XPo56Mp7-HnKYEz6nt2U-34" vertex="1"><mxGeometry y="112" width="170" height="26" as="geometry"/></mxCell><mxCell id="XPo56Mp7-HnKYEz6nt2U-40" value="Ekran" style="swimlane;fontStyle=1;align=center;verticalAlign=top;childLayout=stackLayout;horizontal=1;startSize=26;horizontalStack=0;resizeParent=1;resizeParentMax=0;resizeLast=0;collapsible=1;marginBottom=0;whiteSpace=wrap;html=1;strokeColor=#994C00;" parent="WIyWlLk6GJQsqaUBKTNV-1" vertex="1"><mxGeometry x="-890" y="130" width="240" height="86" as="geometry"/></mxCell><mxCell id="XPo56Mp7-HnKYEz6nt2U-41" value="- stream: NereyeCiktiVereceksen stream&amp;nbsp;" style="text;strokeColor=#994C00;fillColor=none;align=left;verticalAlign=top;spacingLeft=4;spacingRight=4;overflow=hidden;rotatable=0;points=[[0,0.5],[1,0.5]];portConstraint=eastwest;whiteSpace=wrap;html=1;" parent="XPo56Mp7-HnKYEz6nt2U-40" vertex="1"><mxGeometry y="26" width="240" height="26" as="geometry"/></mxCell><mxCell id="XPo56Mp7-HnKYEz6nt2U-42" value="" style="line;strokeWidth=1;fillColor=none;align=left;verticalAlign=middle;spacingTop=-1;spacingLeft=3;spacingRight=3;rotatable=0;labelPosition=right;points=[];portConstraint=eastwest;strokeColor=inherit;" parent="XPo56Mp7-HnKYEz6nt2U-40" vertex="1"><mxGeometry y="52" width="240" height="8" as="geometry"/></mxCell><mxCell id="XPo56Mp7-HnKYEz6nt2U-43" value="+ Yazdir(string): void" style="text;strokeColor=none;fillColor=none;align=left;verticalAlign=top;spacingLeft=4;spacingRight=4;overflow=hidden;rotatable=0;points=[[0,0.5],[1,0.5]];portConstraint=eastwest;whiteSpace=wrap;html=1;" parent="XPo56Mp7-HnKYEz6nt2U-40" vertex="1"><mxGeometry y="60" width="240" height="26" as="geometry"/></mxCell><mxCell id="XPo56Mp7-HnKYEz6nt2U-44" value="RealTimeQueue" style="swimlane;fontStyle=1;align=center;verticalAlign=top;childLayout=stackLayout;horizontal=1;startSize=26;horizontalStack=0;resizeParent=1;resizeParentMax=0;resizeLast=0;collapsible=1;marginBottom=0;whiteSpace=wrap;html=1;strokeColor=#3399FF;" parent="WIyWlLk6GJQsqaUBKTNV-1" vertex="1"><mxGeometry x="150" y="274" width="170" height="86" as="geometry"/></mxCell><mxCell id="XPo56Mp7-HnKYEz6nt2U-45" value="+ Priority0: Queue&amp;lt;Process&amp;gt;" style="text;strokeColor=none;fillColor=none;align=left;verticalAlign=top;spacingLeft=4;spacingRight=4;overflow=hidden;rotatable=0;points=[[0,0.5],[1,0.5]];portConstraint=eastwest;whiteSpace=wrap;html=1;" parent="XPo56Mp7-HnKYEz6nt2U-44" vertex="1"><mxGeometry y="26" width="170" height="26" as="geometry"/></mxCell><mxCell id="XPo56Mp7-HnKYEz6nt2U-46" value="" style="line;strokeWidth=1;fillColor=none;align=left;verticalAlign=middle;spacingTop=-1;spacingLeft=3;spacingRight=3;rotatable=0;labelPosition=right;points=[];portConstraint=eastwest;strokeColor=inherit;" parent="XPo56Mp7-HnKYEz6nt2U-44" vertex="1"><mxGeometry y="52" width="170" height="8" as="geometry"/></mxCell><mxCell id="XPo56Mp7-HnKYEz6nt2U-47" value="+ method(type): type" style="text;strokeColor=none;fillColor=none;align=left;verticalAlign=top;spacingLeft=4;spacingRight=4;overflow=hidden;rotatable=0;points=[[0,0.5],[1,0.5]];portConstraint=eastwest;whiteSpace=wrap;html=1;" parent="XPo56Mp7-HnKYEz6nt2U-44" vertex="1"><mxGeometry y="60" width="170" height="26" as="geometry"/></mxCell><mxCell id="XPo56Mp7-HnKYEz6nt2U-48" value="Waiting Queue ( job dispatch list )&amp;nbsp;" style="swimlane;fontStyle=1;align=center;verticalAlign=top;childLayout=stackLayout;horizontal=1;startSize=26;horizontalStack=0;resizeParent=1;resizeParentMax=0;resizeLast=0;collapsible=1;marginBottom=0;whiteSpace=wrap;html=1;strokeColor=#3399FF;" parent="WIyWlLk6GJQsqaUBKTNV-1" vertex="1"><mxGeometry x="-173" y="600" width="260" height="86" as="geometry"/></mxCell><mxCell id="XPo56Mp7-HnKYEz6nt2U-49" value="- WaitingQueue: Queue&amp;lt;Process&amp;gt;" style="text;strokeColor=none;fillColor=none;align=left;verticalAlign=top;spacingLeft=4;spacingRight=4;overflow=hidden;rotatable=0;points=[[0,0.5],[1,0.5]];portConstraint=eastwest;whiteSpace=wrap;html=1;" parent="XPo56Mp7-HnKYEz6nt2U-48" vertex="1"><mxGeometry y="26" width="260" height="26" as="geometry"/></mxCell><mxCell id="XPo56Mp7-HnKYEz6nt2U-50" value="" style="line;strokeWidth=1;fillColor=none;align=left;verticalAlign=middle;spacingTop=-1;spacingLeft=3;spacingRight=3;rotatable=0;labelPosition=right;points=[];portConstraint=eastwest;strokeColor=inherit;" parent="XPo56Mp7-HnKYEz6nt2U-48" vertex="1"><mxGeometry y="52" width="260" height="8" as="geometry"/></mxCell><mxCell id="XPo56Mp7-HnKYEz6nt2U-51" value="+ method(type): type" style="text;strokeColor=none;fillColor=none;align=left;verticalAlign=top;spacingLeft=4;spacingRight=4;overflow=hidden;rotatable=0;points=[[0,0.5],[1,0.5]];portConstraint=eastwest;whiteSpace=wrap;html=1;" parent="XPo56Mp7-HnKYEz6nt2U-48" vertex="1"><mxGeometry y="60" width="260" height="26" as="geometry"/></mxCell><mxCell id="XPo56Mp7-HnKYEz6nt2U-58" value="Tarayici" style="swimlane;fontStyle=1;align=center;verticalAlign=top;childLayout=stackLayout;horizontal=1;startSize=26;horizontalStack=0;resizeParent=1;resizeParentMax=0;resizeLast=0;collapsible=1;marginBottom=0;whiteSpace=wrap;html=1;strokeColor=#FF0080;" parent="WIyWlLk6GJQsqaUBKTNV-1" vertex="1"><mxGeometry x="-370" y="-770" width="220" height="164" as="geometry"/></mxCell><mxCell id="XPo56Mp7-HnKYEz6nt2U-59" value="- Status: bool" style="text;strokeColor=none;fillColor=none;align=left;verticalAlign=top;spacingLeft=4;spacingRight=4;overflow=hidden;rotatable=0;points=[[0,0.5],[1,0.5]];portConstraint=eastwest;whiteSpace=wrap;html=1;" parent="XPo56Mp7-HnKYEz6nt2U-58" vertex="1"><mxGeometry y="26" width="220" height="26" as="geometry"/></mxCell><mxCell id="ehvPjeEVP9A8o2XFfIN3-96" value="- TarayiciID: int" style="text;strokeColor=none;fillColor=none;align=left;verticalAlign=top;spacingLeft=4;spacingRight=4;overflow=hidden;rotatable=0;points=[[0,0.5],[1,0.5]];portConstraint=eastwest;whiteSpace=wrap;html=1;" parent="XPo56Mp7-HnKYEz6nt2U-58" vertex="1"><mxGeometry y="52" width="220" height="26" as="geometry"/></mxCell><mxCell id="XPo56Mp7-HnKYEz6nt2U-60" value="" style="line;strokeWidth=1;fillColor=none;align=left;verticalAlign=middle;spacingTop=-1;spacingLeft=3;spacingRight=3;rotatable=0;labelPosition=right;points=[];portConstraint=eastwest;strokeColor=inherit;" parent="XPo56Mp7-HnKYEz6nt2U-58" vertex="1"><mxGeometry y="78" width="220" height="8" as="geometry"/></mxCell><mxCell id="XPo56Mp7-HnKYEz6nt2U-61" value="+ CheckStatus(): bool" style="text;strokeColor=none;fillColor=none;align=left;verticalAlign=top;spacingLeft=4;spacingRight=4;overflow=hidden;rotatable=0;points=[[0,0.5],[1,0.5]];portConstraint=eastwest;whiteSpace=wrap;html=1;" parent="XPo56Mp7-HnKYEz6nt2U-58" vertex="1"><mxGeometry y="86" width="220" height="26" as="geometry"/></mxCell><mxCell id="ehvPjeEVP9A8o2XFfIN3-92" value="+ Allocate(): bool" style="text;strokeColor=none;fillColor=none;align=left;verticalAlign=top;spacingLeft=4;spacingRight=4;overflow=hidden;rotatable=0;points=[[0,0.5],[1,0.5]];portConstraint=eastwest;whiteSpace=wrap;html=1;" parent="XPo56Mp7-HnKYEz6nt2U-58" vertex="1"><mxGeometry y="112" width="220" height="26" as="geometry"/></mxCell><mxCell id="ehvPjeEVP9A8o2XFfIN3-75" value="+ CheckWhichProcessUsing(): int" style="text;strokeColor=none;fillColor=none;align=left;verticalAlign=top;spacingLeft=4;spacingRight=4;overflow=hidden;rotatable=0;points=[[0,0.5],[1,0.5]];portConstraint=eastwest;whiteSpace=wrap;html=1;" parent="XPo56Mp7-HnKYEz6nt2U-58" vertex="1"><mxGeometry y="138" width="220" height="26" as="geometry"/></mxCell><mxCell id="XPo56Mp7-HnKYEz6nt2U-62" value="Yazici" style="swimlane;fontStyle=1;align=center;verticalAlign=top;childLayout=stackLayout;horizontal=1;startSize=26;horizontalStack=0;resizeParent=1;resizeParentMax=0;resizeLast=0;collapsible=1;marginBottom=0;whiteSpace=wrap;html=1;strokeColor=#FF0080;" parent="WIyWlLk6GJQsqaUBKTNV-1" vertex="1"><mxGeometry x="-80" y="-748" width="210" height="164" as="geometry"/></mxCell><mxCell id="XPo56Mp7-HnKYEz6nt2U-63" value="- Status: bool" style="text;strokeColor=none;fillColor=none;align=left;verticalAlign=top;spacingLeft=4;spacingRight=4;overflow=hidden;rotatable=0;points=[[0,0.5],[1,0.5]];portConstraint=eastwest;whiteSpace=wrap;html=1;" parent="XPo56Mp7-HnKYEz6nt2U-62" vertex="1"><mxGeometry y="26" width="210" height="26" as="geometry"/></mxCell><mxCell id="ehvPjeEVP9A8o2XFfIN3-97" value="- YaziciID: int" style="text;strokeColor=none;fillColor=none;align=left;verticalAlign=top;spacingLeft=4;spacingRight=4;overflow=hidden;rotatable=0;points=[[0,0.5],[1,0.5]];portConstraint=eastwest;whiteSpace=wrap;html=1;" parent="XPo56Mp7-HnKYEz6nt2U-62" vertex="1"><mxGeometry y="52" width="210" height="26" as="geometry"/></mxCell><mxCell id="XPo56Mp7-HnKYEz6nt2U-64" value="" style="line;strokeWidth=1;fillColor=none;align=left;verticalAlign=middle;spacingTop=-1;spacingLeft=3;spacingRight=3;rotatable=0;labelPosition=right;points=[];portConstraint=eastwest;strokeColor=inherit;" parent="XPo56Mp7-HnKYEz6nt2U-62" vertex="1"><mxGeometry y="78" width="210" height="8" as="geometry"/></mxCell><mxCell id="XPo56Mp7-HnKYEz6nt2U-65" value="+ CheckStatus(): bool" style="text;strokeColor=none;fillColor=none;align=left;verticalAlign=top;spacingLeft=4;spacingRight=4;overflow=hidden;rotatable=0;points=[[0,0.5],[1,0.5]];portConstraint=eastwest;whiteSpace=wrap;html=1;" parent="XPo56Mp7-HnKYEz6nt2U-62" vertex="1"><mxGeometry y="86" width="210" height="26" as="geometry"/></mxCell><mxCell id="ehvPjeEVP9A8o2XFfIN3-93" value="+ Allocate(): bool" style="text;strokeColor=none;fillColor=none;align=left;verticalAlign=top;spacingLeft=4;spacingRight=4;overflow=hidden;rotatable=0;points=[[0,0.5],[1,0.5]];portConstraint=eastwest;whiteSpace=wrap;html=1;" parent="XPo56Mp7-HnKYEz6nt2U-62" vertex="1"><mxGeometry y="112" width="210" height="26" as="geometry"/></mxCell><mxCell id="ehvPjeEVP9A8o2XFfIN3-76" value="+ CheckWhichProcessUsing(): int" style="text;strokeColor=none;fillColor=none;align=left;verticalAlign=top;spacingLeft=4;spacingRight=4;overflow=hidden;rotatable=0;points=[[0,0.5],[1,0.5]];portConstraint=eastwest;whiteSpace=wrap;html=1;" parent="XPo56Mp7-HnKYEz6nt2U-62" vertex="1"><mxGeometry y="138" width="210" height="26" as="geometry"/></mxCell><mxCell id="XPo56Mp7-HnKYEz6nt2U-66" value="Modem" style="swimlane;fontStyle=1;align=center;verticalAlign=top;childLayout=stackLayout;horizontal=1;startSize=26;horizontalStack=0;resizeParent=1;resizeParentMax=0;resizeLast=0;collapsible=1;marginBottom=0;whiteSpace=wrap;html=1;strokeColor=#FF0080;" parent="WIyWlLk6GJQsqaUBKTNV-1" vertex="1"><mxGeometry x="-650" y="-748" width="220" height="164" as="geometry"/></mxCell><mxCell id="XPo56Mp7-HnKYEz6nt2U-67" value="- Status: bool" style="text;strokeColor=none;fillColor=none;align=left;verticalAlign=top;spacingLeft=4;spacingRight=4;overflow=hidden;rotatable=0;points=[[0,0.5],[1,0.5]];portConstraint=eastwest;whiteSpace=wrap;html=1;" parent="XPo56Mp7-HnKYEz6nt2U-66" vertex="1"><mxGeometry y="26" width="220" height="26" as="geometry"/></mxCell><mxCell id="ehvPjeEVP9A8o2XFfIN3-95" value="- ModemID: int" style="text;strokeColor=none;fillColor=none;align=left;verticalAlign=top;spacingLeft=4;spacingRight=4;overflow=hidden;rotatable=0;points=[[0,0.5],[1,0.5]];portConstraint=eastwest;whiteSpace=wrap;html=1;" parent="XPo56Mp7-HnKYEz6nt2U-66" vertex="1"><mxGeometry y="52" width="220" height="26" as="geometry"/></mxCell><mxCell id="XPo56Mp7-HnKYEz6nt2U-68" value="" style="line;strokeWidth=1;fillColor=none;align=left;verticalAlign=middle;spacingTop=-1;spacingLeft=3;spacingRight=3;rotatable=0;labelPosition=right;points=[];portConstraint=eastwest;strokeColor=inherit;" parent="XPo56Mp7-HnKYEz6nt2U-66" vertex="1"><mxGeometry y="78" width="220" height="8" as="geometry"/></mxCell><mxCell id="XPo56Mp7-HnKYEz6nt2U-69" value="+ CheckStatus(): bool" style="text;strokeColor=none;fillColor=none;align=left;verticalAlign=top;spacingLeft=4;spacingRight=4;overflow=hidden;rotatable=0;points=[[0,0.5],[1,0.5]];portConstraint=eastwest;whiteSpace=wrap;html=1;" parent="XPo56Mp7-HnKYEz6nt2U-66" vertex="1"><mxGeometry y="86" width="220" height="26" as="geometry"/></mxCell><mxCell id="ehvPjeEVP9A8o2XFfIN3-91" value="+ Allocate(): bool" style="text;strokeColor=none;fillColor=none;align=left;verticalAlign=top;spacingLeft=4;spacingRight=4;overflow=hidden;rotatable=0;points=[[0,0.5],[1,0.5]];portConstraint=eastwest;whiteSpace=wrap;html=1;" parent="XPo56Mp7-HnKYEz6nt2U-66" vertex="1"><mxGeometry y="112" width="220" height="26" as="geometry"/></mxCell><mxCell id="ehvPjeEVP9A8o2XFfIN3-74" value="+ CheckWhichProcessUsing(): int" style="text;strokeColor=none;fillColor=none;align=left;verticalAlign=top;spacingLeft=4;spacingRight=4;overflow=hidden;rotatable=0;points=[[0,0.5],[1,0.5]];portConstraint=eastwest;whiteSpace=wrap;html=1;" parent="XPo56Mp7-HnKYEz6nt2U-66" vertex="1"><mxGeometry y="138" width="220" height="26" as="geometry"/></mxCell><mxCell id="XPo56Mp7-HnKYEz6nt2U-70" value="CD Surucusu" style="swimlane;fontStyle=1;align=center;verticalAlign=top;childLayout=stackLayout;horizontal=1;startSize=26;horizontalStack=0;resizeParent=1;resizeParentMax=0;resizeLast=0;collapsible=1;marginBottom=0;whiteSpace=wrap;html=1;" parent="WIyWlLk6GJQsqaUBKTNV-1" vertex="1"><mxGeometry x="-390" y="-540" width="240" height="138" as="geometry"/></mxCell><mxCell id="XPo56Mp7-HnKYEz6nt2U-71" value="- Status: bool" style="text;strokeColor=#FF0080;fillColor=none;align=left;verticalAlign=top;spacingLeft=4;spacingRight=4;overflow=hidden;rotatable=0;points=[[0,0.5],[1,0.5]];portConstraint=eastwest;whiteSpace=wrap;html=1;" parent="XPo56Mp7-HnKYEz6nt2U-70" vertex="1"><mxGeometry y="26" width="240" height="26" as="geometry"/></mxCell><mxCell id="XPo56Mp7-HnKYEz6nt2U-72" value="" style="line;strokeWidth=1;fillColor=none;align=left;verticalAlign=middle;spacingTop=-1;spacingLeft=3;spacingRight=3;rotatable=0;labelPosition=right;points=[];portConstraint=eastwest;strokeColor=inherit;" parent="XPo56Mp7-HnKYEz6nt2U-70" vertex="1"><mxGeometry y="52" width="240" height="8" as="geometry"/></mxCell><mxCell id="XPo56Mp7-HnKYEz6nt2U-73" value="+ CheckStatus(): bool" style="text;strokeColor=none;fillColor=none;align=left;verticalAlign=top;spacingLeft=4;spacingRight=4;overflow=hidden;rotatable=0;points=[[0,0.5],[1,0.5]];portConstraint=eastwest;whiteSpace=wrap;html=1;" parent="XPo56Mp7-HnKYEz6nt2U-70" vertex="1"><mxGeometry y="60" width="240" height="26" as="geometry"/></mxCell><mxCell id="ehvPjeEVP9A8o2XFfIN3-94" value="+ Allocate(): bool" style="text;strokeColor=none;fillColor=none;align=left;verticalAlign=top;spacingLeft=4;spacingRight=4;overflow=hidden;rotatable=0;points=[[0,0.5],[1,0.5]];portConstraint=eastwest;whiteSpace=wrap;html=1;" parent="XPo56Mp7-HnKYEz6nt2U-70" vertex="1"><mxGeometry y="86" width="240" height="26" as="geometry"/></mxCell><mxCell id="XPo56Mp7-HnKYEz6nt2U-129" value="+ CheckWhichProcessUsing(): int" style="text;strokeColor=none;fillColor=none;align=left;verticalAlign=top;spacingLeft=4;spacingRight=4;overflow=hidden;rotatable=0;points=[[0,0.5],[1,0.5]];portConstraint=eastwest;whiteSpace=wrap;html=1;" parent="XPo56Mp7-HnKYEz6nt2U-70" vertex="1"><mxGeometry y="112" width="240" height="26" as="geometry"/></mxCell><mxCell id="XPo56Mp7-HnKYEz6nt2U-74" value="Bellek RAM" style="swimlane;fontStyle=1;align=center;verticalAlign=top;childLayout=stackLayout;horizontal=1;startSize=26;horizontalStack=0;resizeParent=1;resizeParentMax=0;resizeLast=0;collapsible=1;marginBottom=0;whiteSpace=wrap;html=1;strokeColor=#FF6666;" parent="WIyWlLk6GJQsqaUBKTNV-1" vertex="1"><mxGeometry x="-190" y="120" width="220" height="460" as="geometry"/></mxCell><mxCell id="XPo56Mp7-HnKYEz6nt2U-75" value="- TotalRam: int dışardan al" style="text;strokeColor=none;fillColor=none;align=left;verticalAlign=top;spacingLeft=4;spacingRight=4;overflow=hidden;rotatable=0;points=[[0,0.5],[1,0.5]];portConstraint=eastwest;whiteSpace=wrap;html=1;" parent="XPo56Mp7-HnKYEz6nt2U-74" vertex="1"><mxGeometry y="26" width="220" height="26" as="geometry"/></mxCell><mxCell id="ehvPjeEVP9A8o2XFfIN3-46" value="- Frames: RamFrames[128] adet&lt;br&gt;dinamik olarak total rame göre olustur.&lt;br&gt;FCFS icin bellek ayirmayi unutma. total rame göre oluştur" style="text;strokeColor=none;fillColor=none;align=left;verticalAlign=top;spacingLeft=4;spacingRight=4;overflow=hidden;rotatable=0;points=[[0,0.5],[1,0.5]];portConstraint=eastwest;whiteSpace=wrap;html=1;" parent="XPo56Mp7-HnKYEz6nt2U-74" vertex="1"><mxGeometry y="52" width="220" height="68" as="geometry"/></mxCell><mxCell id="XPo56Mp7-HnKYEz6nt2U-104" value="- processverisi: Dictionary&amp;lt;int(id),PCB&amp;gt;&lt;br&gt;kendin new'le" style="text;strokeColor=none;fillColor=none;align=left;verticalAlign=top;spacingLeft=4;spacingRight=4;overflow=hidden;rotatable=0;points=[[0,0.5],[1,0.5]];portConstraint=eastwest;whiteSpace=wrap;html=1;" parent="XPo56Mp7-HnKYEz6nt2U-74" vertex="1"><mxGeometry y="120" width="220" height="50" as="geometry"/></mxCell><mxCell id="XPo56Mp7-HnKYEz6nt2U-76" value="" style="line;strokeWidth=1;fillColor=none;align=left;verticalAlign=middle;spacingTop=-1;spacingLeft=3;spacingRight=3;rotatable=0;labelPosition=right;points=[];portConstraint=eastwest;strokeColor=inherit;" parent="XPo56Mp7-HnKYEz6nt2U-74" vertex="1"><mxGeometry y="170" width="220" height="8" as="geometry"/></mxCell><mxCell id="XPo56Mp7-HnKYEz6nt2U-77" value="- CheckStatus(int ramMiiktari): bool&amp;nbsp; yeterli alan var mi" style="text;strokeColor=none;fillColor=none;align=left;verticalAlign=top;spacingLeft=4;spacingRight=4;overflow=hidden;rotatable=0;points=[[0,0.5],[1,0.5]];portConstraint=eastwest;whiteSpace=wrap;html=1;" parent="XPo56Mp7-HnKYEz6nt2U-74" vertex="1"><mxGeometry y="178" width="220" height="46" as="geometry"/></mxCell><mxCell id="ehvPjeEVP9A8o2XFfIN3-53" value="- bosAlanGetir(): int&amp;nbsp; FrameNumber" style="text;strokeColor=none;fillColor=none;align=left;verticalAlign=top;spacingLeft=4;spacingRight=4;overflow=hidden;rotatable=0;points=[[0,0.5],[1,0.5]];portConstraint=eastwest;whiteSpace=wrap;html=1;" parent="XPo56Mp7-HnKYEz6nt2U-74" vertex="1"><mxGeometry y="224" width="220" height="26" as="geometry"/></mxCell><mxCell id="ehvPjeEVP9A8o2XFfIN3-55" value="+ TahsisEt(int alan): Dicitonary&amp;lt;int,int&amp;gt;&lt;br&gt;Burada Frame tahsis edeceksin ve PAge table yani dictionary döneceksin Eğerki null dönersen yer yok anlamına geliyor" style="text;strokeColor=none;fillColor=none;align=left;verticalAlign=top;spacingLeft=4;spacingRight=4;overflow=hidden;rotatable=0;points=[[0,0.5],[1,0.5]];portConstraint=eastwest;whiteSpace=wrap;html=1;" parent="XPo56Mp7-HnKYEz6nt2U-74" vertex="1"><mxGeometry y="250" width="220" height="84" as="geometry"/></mxCell><mxCell id="ehvPjeEVP9A8o2XFfIN3-54" value="- FCFS ise ayri alanlari tara yer var mi(): int" style="text;strokeColor=none;fillColor=none;align=left;verticalAlign=top;spacingLeft=4;spacingRight=4;overflow=hidden;rotatable=0;points=[[0,0.5],[1,0.5]];portConstraint=eastwest;whiteSpace=wrap;html=1;" parent="XPo56Mp7-HnKYEz6nt2U-74" vertex="1"><mxGeometry y="334" width="220" height="48" as="geometry"/></mxCell><mxCell id="ehvPjeEVP9A8o2XFfIN3-52" value="- RR ise ayri alanlari tara(): int" style="text;strokeColor=none;fillColor=none;align=left;verticalAlign=top;spacingLeft=4;spacingRight=4;overflow=hidden;rotatable=0;points=[[0,0.5],[1,0.5]];portConstraint=eastwest;whiteSpace=wrap;html=1;" parent="XPo56Mp7-HnKYEz6nt2U-74" vertex="1"><mxGeometry y="382" width="220" height="26" as="geometry"/></mxCell><mxCell id="ojoNzWy3ps6btbPR5Wlg-25" value="+ PCB ekle();&amp;nbsp; bool" style="text;strokeColor=none;fillColor=none;align=left;verticalAlign=top;spacingLeft=4;spacingRight=4;overflow=hidden;rotatable=0;points=[[0,0.5],[1,0.5]];portConstraint=eastwest;whiteSpace=wrap;html=1;" parent="XPo56Mp7-HnKYEz6nt2U-74" vertex="1"><mxGeometry y="408" width="220" height="26" as="geometry"/></mxCell><mxCell id="ehvPjeEVP9A8o2XFfIN3-102" value="+ id'yeGorePCB&amp;nbsp; Ara(int id): PCB" style="text;strokeColor=none;fillColor=none;align=left;verticalAlign=top;spacingLeft=4;spacingRight=4;overflow=hidden;rotatable=0;points=[[0,0.5],[1,0.5]];portConstraint=eastwest;whiteSpace=wrap;html=1;" parent="XPo56Mp7-HnKYEz6nt2U-74" vertex="1"><mxGeometry y="434" width="220" height="26" as="geometry"/></mxCell><mxCell id="XPo56Mp7-HnKYEz6nt2U-78" value="Çizelgeleyici RR" style="swimlane;fontStyle=1;align=center;verticalAlign=top;childLayout=stackLayout;horizontal=1;startSize=26;horizontalStack=0;resizeParent=1;resizeParentMax=0;resizeLast=0;collapsible=1;marginBottom=0;whiteSpace=wrap;html=1;strokeColor=#3399FF;" parent="WIyWlLk6GJQsqaUBKTNV-1" vertex="1"><mxGeometry x="350" y="445" width="270" height="130" as="geometry"/></mxCell><mxCell id="XPo56Mp7-HnKYEz6nt2U-79" value="- UserQueue : UserQueue&lt;br&gt;Bunu çizelgeleyici olustururken atayacaksin" style="text;strokeColor=none;fillColor=none;align=left;verticalAlign=top;spacingLeft=4;spacingRight=4;overflow=hidden;rotatable=0;points=[[0,0.5],[1,0.5]];portConstraint=eastwest;whiteSpace=wrap;html=1;" parent="XPo56Mp7-HnKYEz6nt2U-78" vertex="1"><mxGeometry y="26" width="270" height="44" as="geometry"/></mxCell><mxCell id="XPo56Mp7-HnKYEz6nt2U-80" value="" style="line;strokeWidth=1;fillColor=none;align=left;verticalAlign=middle;spacingTop=-1;spacingLeft=3;spacingRight=3;rotatable=0;labelPosition=right;points=[];portConstraint=eastwest;strokeColor=inherit;" parent="XPo56Mp7-HnKYEz6nt2U-78" vertex="1"><mxGeometry y="70" width="270" height="8" as="geometry"/></mxCell><mxCell id="XPo56Mp7-HnKYEz6nt2U-81" value="+ ProcessGetir(): Process" style="text;strokeColor=none;fillColor=none;align=left;verticalAlign=top;spacingLeft=4;spacingRight=4;overflow=hidden;rotatable=0;points=[[0,0.5],[1,0.5]];portConstraint=eastwest;whiteSpace=wrap;html=1;" parent="XPo56Mp7-HnKYEz6nt2U-78" vertex="1"><mxGeometry y="78" width="270" height="26" as="geometry"/></mxCell><mxCell id="XPo56Mp7-HnKYEz6nt2U-89" value="+ Cizelgele(Process): void" style="text;strokeColor=none;fillColor=none;align=left;verticalAlign=top;spacingLeft=4;spacingRight=4;overflow=hidden;rotatable=0;points=[[0,0.5],[1,0.5]];portConstraint=eastwest;whiteSpace=wrap;html=1;" parent="XPo56Mp7-HnKYEz6nt2U-78" vertex="1"><mxGeometry y="104" width="270" height="26" as="geometry"/></mxCell><mxCell id="XPo56Mp7-HnKYEz6nt2U-82" value="Çizelgeleyici for OS ( yani asıl bu yürütüyor işleri )" style="swimlane;fontStyle=1;align=center;verticalAlign=top;childLayout=stackLayout;horizontal=1;startSize=26;horizontalStack=0;resizeParent=1;resizeParentMax=0;resizeLast=0;collapsible=1;marginBottom=0;whiteSpace=wrap;html=1;strokeColor=#3399FF;" parent="WIyWlLk6GJQsqaUBKTNV-1" vertex="1"><mxGeometry x="660" y="310" width="320" height="410" as="geometry"/></mxCell><mxCell id="XPo56Mp7-HnKYEz6nt2U-83" value="- Çizelgeleyici FCFS" style="text;strokeColor=none;fillColor=none;align=left;verticalAlign=top;spacingLeft=4;spacingRight=4;overflow=hidden;rotatable=0;points=[[0,0.5],[1,0.5]];portConstraint=eastwest;whiteSpace=wrap;html=1;" parent="XPo56Mp7-HnKYEz6nt2U-82" vertex="1"><mxGeometry y="26" width="320" height="26" as="geometry"/></mxCell><mxCell id="ehvPjeEVP9A8o2XFfIN3-99" value="- Çizelgeleyici RR" style="text;strokeColor=none;fillColor=none;align=left;verticalAlign=top;spacingLeft=4;spacingRight=4;overflow=hidden;rotatable=0;points=[[0,0.5],[1,0.5]];portConstraint=eastwest;whiteSpace=wrap;html=1;" parent="XPo56Mp7-HnKYEz6nt2U-82" vertex="1"><mxGeometry y="52" width="320" height="26" as="geometry"/></mxCell><mxCell id="ehvPjeEVP9A8o2XFfIN3-101" value="- Dispatcher : IDispatcher" style="text;strokeColor=none;fillColor=none;align=left;verticalAlign=top;spacingLeft=4;spacingRight=4;overflow=hidden;rotatable=0;points=[[0,0.5],[1,0.5]];portConstraint=eastwest;whiteSpace=wrap;html=1;" parent="XPo56Mp7-HnKYEz6nt2U-82" vertex="1"><mxGeometry y="78" width="320" height="26" as="geometry"/></mxCell><mxCell id="ojoNzWy3ps6btbPR5Wlg-19" value="- Cpu: ICPU&amp;nbsp;" style="text;strokeColor=none;fillColor=none;align=left;verticalAlign=top;spacingLeft=4;spacingRight=4;overflow=hidden;rotatable=0;points=[[0,0.5],[1,0.5]];portConstraint=eastwest;whiteSpace=wrap;html=1;" parent="XPo56Mp7-HnKYEz6nt2U-82" vertex="1"><mxGeometry y="104" width="320" height="36" as="geometry"/></mxCell><mxCell id="XPo56Mp7-HnKYEz6nt2U-84" value="" style="line;strokeWidth=1;fillColor=none;align=left;verticalAlign=middle;spacingTop=-1;spacingLeft=3;spacingRight=3;rotatable=0;labelPosition=right;points=[];portConstraint=eastwest;strokeColor=inherit;" parent="XPo56Mp7-HnKYEz6nt2U-82" vertex="1"><mxGeometry y="140" width="320" height="8" as="geometry"/></mxCell><mxCell id="XPo56Mp7-HnKYEz6nt2U-85" value="+ ProcessGetir(): Process&lt;br&gt;Bu fonksiyon siradaki process'in secilip cpu'ya verilmesini saglayacak. Bunu diğer iki çizelgeleyicinin bu methodlarını çağırarak yapacak." style="text;strokeColor=none;fillColor=none;align=left;verticalAlign=top;spacingLeft=4;spacingRight=4;overflow=hidden;rotatable=0;points=[[0,0.5],[1,0.5]];portConstraint=eastwest;whiteSpace=wrap;html=1;" parent="XPo56Mp7-HnKYEz6nt2U-82" vertex="1"><mxGeometry y="148" width="320" height="70" as="geometry"/></mxCell><mxCell id="XPo56Mp7-HnKYEz6nt2U-87" value="+ KesmeGonder(): attribute&lt;br&gt;Aslinda hicbir zaman kesme gitmeyecek q=1 ama olsun biz yapalım" style="text;strokeColor=none;fillColor=none;align=left;verticalAlign=top;spacingLeft=4;spacingRight=4;overflow=hidden;rotatable=0;points=[[0,0.5],[1,0.5]];portConstraint=eastwest;whiteSpace=wrap;html=1;" parent="XPo56Mp7-HnKYEz6nt2U-82" vertex="1"><mxGeometry y="218" width="320" height="54" as="geometry"/></mxCell><mxCell id="XPo56Mp7-HnKYEz6nt2U-91" value="+ Cizelgele(Process): void&lt;br&gt;Bu cpu'dan quantum süresinde bitmemişs process'i alıp queue'da uygun yere yerlestirecek. Ya da OS tarafından gönderilen process'i uygun eyere yerleştirecek" style="text;strokeColor=none;fillColor=none;align=left;verticalAlign=top;spacingLeft=4;spacingRight=4;overflow=hidden;rotatable=0;points=[[0,0.5],[1,0.5]];portConstraint=eastwest;whiteSpace=wrap;html=1;" parent="XPo56Mp7-HnKYEz6nt2U-82" vertex="1"><mxGeometry y="272" width="320" height="68" as="geometry"/></mxCell><mxCell id="ehvPjeEVP9A8o2XFfIN3-1" value="- Process kontrol() : attribute&lt;br&gt;Hali hazırda calisan process'in onceligini kontrol et FCFS mi yoksa RR mi ona gore processgetir()'i çağır." style="text;strokeColor=none;fillColor=none;align=left;verticalAlign=top;spacingLeft=4;spacingRight=4;overflow=hidden;rotatable=0;points=[[0,0.5],[1,0.5]];portConstraint=eastwest;whiteSpace=wrap;html=1;" parent="XPo56Mp7-HnKYEz6nt2U-82" vertex="1"><mxGeometry y="340" width="320" height="70" as="geometry"/></mxCell><mxCell id="XPo56Mp7-HnKYEz6nt2U-92" value="ReadText" style="swimlane;fontStyle=1;align=center;verticalAlign=top;childLayout=stackLayout;horizontal=1;startSize=26;horizontalStack=0;resizeParent=1;resizeParentMax=0;resizeLast=0;collapsible=1;marginBottom=0;whiteSpace=wrap;html=1;strokeColor=#FF3399;" parent="WIyWlLk6GJQsqaUBKTNV-1" vertex="1"><mxGeometry x="-1350" y="482" width="240" height="124" as="geometry"/></mxCell><mxCell id="XPo56Mp7-HnKYEz6nt2U-93" value="+ txt'den okunan veri: List&amp;lt;String[]&amp;gt; herbir satir ve onlari split et" style="text;strokeColor=none;fillColor=none;align=left;verticalAlign=top;spacingLeft=4;spacingRight=4;overflow=hidden;rotatable=0;points=[[0,0.5],[1,0.5]];portConstraint=eastwest;whiteSpace=wrap;html=1;" parent="XPo56Mp7-HnKYEz6nt2U-92" vertex="1"><mxGeometry y="26" width="240" height="34" as="geometry"/></mxCell><mxCell id="XPo56Mp7-HnKYEz6nt2U-94" value="" style="line;strokeWidth=1;fillColor=none;align=left;verticalAlign=middle;spacingTop=-1;spacingLeft=3;spacingRight=3;rotatable=0;labelPosition=right;points=[];portConstraint=eastwest;strokeColor=inherit;" parent="XPo56Mp7-HnKYEz6nt2U-92" vertex="1"><mxGeometry y="60" width="240" height="8" as="geometry"/></mxCell><mxCell id="XPo56Mp7-HnKYEz6nt2U-95" value="+ Read(path) : string" style="text;strokeColor=none;fillColor=none;align=left;verticalAlign=top;spacingLeft=4;spacingRight=4;overflow=hidden;rotatable=0;points=[[0,0.5],[1,0.5]];portConstraint=eastwest;whiteSpace=wrap;html=1;" parent="XPo56Mp7-HnKYEz6nt2U-92" vertex="1"><mxGeometry y="68" width="240" height="30" as="geometry"/></mxCell><mxCell id="ehvPjeEVP9A8o2XFfIN3-104" value="+ GetListText(): List&amp;lt;String[]&amp;gt;" style="text;strokeColor=none;fillColor=none;align=left;verticalAlign=top;spacingLeft=4;spacingRight=4;overflow=hidden;rotatable=0;points=[[0,0.5],[1,0.5]];portConstraint=eastwest;whiteSpace=wrap;html=1;" parent="XPo56Mp7-HnKYEz6nt2U-92" vertex="1"><mxGeometry y="98" width="240" height="26" as="geometry"/></mxCell><mxCell id="XPo56Mp7-HnKYEz6nt2U-96" value="Operating System" style="swimlane;fontStyle=1;align=center;verticalAlign=top;childLayout=stackLayout;horizontal=1;startSize=26;horizontalStack=0;resizeParent=1;resizeParentMax=0;resizeLast=0;collapsible=1;marginBottom=0;whiteSpace=wrap;html=1;strokeColor=#CC6600;" parent="WIyWlLk6GJQsqaUBKTNV-1" vertex="1"><mxGeometry x="-550" y="585" width="330" height="736" as="geometry"/></mxCell><mxCell id="ehvPjeEVP9A8o2XFfIN3-85" value="- Ram: IRam &lt;br&gt;Buradaki herbir resource bilgisayar baslatilirken load operating system methodu tarafından OS olusturulurken atanacak" style="text;strokeColor=none;fillColor=none;align=left;verticalAlign=top;spacingLeft=4;spacingRight=4;overflow=hidden;rotatable=0;points=[[0,0.5],[1,0.5]];portConstraint=eastwest;whiteSpace=wrap;html=1;" parent="XPo56Mp7-HnKYEz6nt2U-96" vertex="1"><mxGeometry y="26" width="330" height="74" as="geometry"/></mxCell><mxCell id="ehvPjeEVP9A8o2XFfIN3-86" value="- Yazıcı: IYazıcı Bunlar List olabilir" style="text;strokeColor=none;fillColor=none;align=left;verticalAlign=top;spacingLeft=4;spacingRight=4;overflow=hidden;rotatable=0;points=[[0,0.5],[1,0.5]];portConstraint=eastwest;whiteSpace=wrap;html=1;" parent="XPo56Mp7-HnKYEz6nt2U-96" vertex="1"><mxGeometry y="100" width="330" height="28" as="geometry"/></mxCell><mxCell id="ehvPjeEVP9A8o2XFfIN3-87" value="- Tarayıcı&amp;nbsp;:ITarayıcı" style="text;strokeColor=none;fillColor=none;align=left;verticalAlign=top;spacingLeft=4;spacingRight=4;overflow=hidden;rotatable=0;points=[[0,0.5],[1,0.5]];portConstraint=eastwest;whiteSpace=wrap;html=1;" parent="XPo56Mp7-HnKYEz6nt2U-96" vertex="1"><mxGeometry y="128" width="330" height="26" as="geometry"/></mxCell><mxCell id="ehvPjeEVP9A8o2XFfIN3-88" value="- Modem: IModem" style="text;strokeColor=none;fillColor=none;align=left;verticalAlign=top;spacingLeft=4;spacingRight=4;overflow=hidden;rotatable=0;points=[[0,0.5],[1,0.5]];portConstraint=eastwest;whiteSpace=wrap;html=1;" parent="XPo56Mp7-HnKYEz6nt2U-96" vertex="1"><mxGeometry y="154" width="330" height="26" as="geometry"/></mxCell><mxCell id="ehvPjeEVP9A8o2XFfIN3-89" value="- Ekran: IEkran" style="text;strokeColor=none;fillColor=none;align=left;verticalAlign=top;spacingLeft=4;spacingRight=4;overflow=hidden;rotatable=0;points=[[0,0.5],[1,0.5]];portConstraint=eastwest;whiteSpace=wrap;html=1;" parent="XPo56Mp7-HnKYEz6nt2U-96" vertex="1"><mxGeometry y="180" width="330" height="26" as="geometry"/></mxCell><mxCell id="ehvPjeEVP9A8o2XFfIN3-90" value="- CPU: ICPU" style="text;strokeColor=none;fillColor=none;align=left;verticalAlign=top;spacingLeft=4;spacingRight=4;overflow=hidden;rotatable=0;points=[[0,0.5],[1,0.5]];portConstraint=eastwest;whiteSpace=wrap;html=1;" parent="XPo56Mp7-HnKYEz6nt2U-96" vertex="1"><mxGeometry y="206" width="330" height="26" as="geometry"/></mxCell><mxCell id="XPo56Mp7-HnKYEz6nt2U-97" value="- Waiting queue: IWaitingQueue&amp;nbsp;" style="text;strokeColor=none;fillColor=none;align=left;verticalAlign=top;spacingLeft=4;spacingRight=4;overflow=hidden;rotatable=0;points=[[0,0.5],[1,0.5]];portConstraint=eastwest;whiteSpace=wrap;html=1;" parent="XPo56Mp7-HnKYEz6nt2U-96" vertex="1"><mxGeometry y="232" width="330" height="28" as="geometry"/></mxCell><mxCell id="ehvPjeEVP9A8o2XFfIN3-18" value="- RealTimeQueue: IRealtimeQueue" style="text;strokeColor=none;fillColor=none;align=left;verticalAlign=top;spacingLeft=4;spacingRight=4;overflow=hidden;rotatable=0;points=[[0,0.5],[1,0.5]];portConstraint=eastwest;whiteSpace=wrap;html=1;" parent="XPo56Mp7-HnKYEz6nt2U-96" vertex="1"><mxGeometry y="260" width="330" height="26" as="geometry"/></mxCell><mxCell id="ehvPjeEVP9A8o2XFfIN3-19" value="- UserQueue: IUserQueue" style="text;strokeColor=none;fillColor=none;align=left;verticalAlign=top;spacingLeft=4;spacingRight=4;overflow=hidden;rotatable=0;points=[[0,0.5],[1,0.5]];portConstraint=eastwest;whiteSpace=wrap;html=1;" parent="XPo56Mp7-HnKYEz6nt2U-96" vertex="1"><mxGeometry y="286" width="330" height="26" as="geometry"/></mxCell><mxCell id="ehvPjeEVP9A8o2XFfIN3-20" value="- Çizelgeleyici RR: IÇizelgeleyiciRR" style="text;strokeColor=none;fillColor=none;align=left;verticalAlign=top;spacingLeft=4;spacingRight=4;overflow=hidden;rotatable=0;points=[[0,0.5],[1,0.5]];portConstraint=eastwest;whiteSpace=wrap;html=1;" parent="XPo56Mp7-HnKYEz6nt2U-96" vertex="1"><mxGeometry y="312" width="330" height="26" as="geometry"/></mxCell><mxCell id="ehvPjeEVP9A8o2XFfIN3-21" value="- Çizelgeleyici FCFS: IÇizelgeleyici FCFS" style="text;strokeColor=none;fillColor=none;align=left;verticalAlign=top;spacingLeft=4;spacingRight=4;overflow=hidden;rotatable=0;points=[[0,0.5],[1,0.5]];portConstraint=eastwest;whiteSpace=wrap;html=1;" parent="XPo56Mp7-HnKYEz6nt2U-96" vertex="1"><mxGeometry y="338" width="330" height="26" as="geometry"/></mxCell><mxCell id="ehvPjeEVP9A8o2XFfIN3-22" value="- Çizelgeleyici: IÇizelgeleyici" style="text;strokeColor=none;fillColor=none;align=left;verticalAlign=top;spacingLeft=4;spacingRight=4;overflow=hidden;rotatable=0;points=[[0,0.5],[1,0.5]];portConstraint=eastwest;whiteSpace=wrap;html=1;" parent="XPo56Mp7-HnKYEz6nt2U-96" vertex="1"><mxGeometry y="364" width="330" height="26" as="geometry"/></mxCell><mxCell id="ehvPjeEVP9A8o2XFfIN3-25" value="- Dispatcher: IDispatcher" style="text;strokeColor=none;fillColor=none;align=left;verticalAlign=top;spacingLeft=4;spacingRight=4;overflow=hidden;rotatable=0;points=[[0,0.5],[1,0.5]];portConstraint=eastwest;whiteSpace=wrap;html=1;" parent="XPo56Mp7-HnKYEz6nt2U-96" vertex="1"><mxGeometry y="390" width="330" height="26" as="geometry"/></mxCell><mxCell id="ehvPjeEVP9A8o2XFfIN3-71" value="- ProcessManager: IProcessManager" style="text;strokeColor=none;fillColor=none;align=left;verticalAlign=top;spacingLeft=4;spacingRight=4;overflow=hidden;rotatable=0;points=[[0,0.5],[1,0.5]];portConstraint=eastwest;whiteSpace=wrap;html=1;" parent="XPo56Mp7-HnKYEz6nt2U-96" vertex="1"><mxGeometry y="416" width="330" height="26" as="geometry"/></mxCell><mxCell id="ojoNzWy3ps6btbPR5Wlg-17" value="- Timer: ITimer" style="text;strokeColor=none;fillColor=none;align=left;verticalAlign=top;spacingLeft=4;spacingRight=4;overflow=hidden;rotatable=0;points=[[0,0.5],[1,0.5]];portConstraint=eastwest;whiteSpace=wrap;html=1;" parent="XPo56Mp7-HnKYEz6nt2U-96" vertex="1"><mxGeometry y="442" width="330" height="26" as="geometry"/></mxCell><mxCell id="XPo56Mp7-HnKYEz6nt2U-98" value="" style="line;strokeWidth=1;fillColor=none;align=left;verticalAlign=middle;spacingTop=-1;spacingLeft=3;spacingRight=3;rotatable=0;labelPosition=right;points=[];portConstraint=eastwest;strokeColor=inherit;" parent="XPo56Mp7-HnKYEz6nt2U-96" vertex="1"><mxGeometry y="468" width="330" height="8" as="geometry"/></mxCell><mxCell id="XPo56Mp7-HnKYEz6nt2U-100" value="- Send appropriate Queue(Process): attribute&lt;br&gt;Bu gönderme islemini cizelgeleyici araciligi ile yapiyor&lt;br&gt;Waiting queue'yu kendi kontrol ediyor. WaitingQueue ise OS kontrol edecek ve yerleştirecek. Waiting Queue kontrol edilecek yerleştirme gerekiyorsa çizelgeleyici çağrılacak.&lt;br&gt;waiting queue dan ready queue'ya geçerken alan tahsis edilip çizelgeleyici içerisinde ilgili ready queue'lardan briine yerlestirilecek.&amp;nbsp;" style="text;strokeColor=none;fillColor=none;align=left;verticalAlign=top;spacingLeft=4;spacingRight=4;overflow=hidden;rotatable=0;points=[[0,0.5],[1,0.5]];portConstraint=eastwest;whiteSpace=wrap;html=1;" parent="XPo56Mp7-HnKYEz6nt2U-96" vertex="1"><mxGeometry y="476" width="330" height="134" as="geometry"/></mxCell><mxCell id="XPo56Mp7-HnKYEz6nt2U-101" value="- Check Waiting Queue Processes can be ready(): void&lt;br&gt;tek tek dolas demek istedim Bak bakayım hazır olan var mı .Bunu her bir zaman tick'i icerisinde yap" style="text;strokeColor=none;fillColor=none;align=left;verticalAlign=top;spacingLeft=4;spacingRight=4;overflow=hidden;rotatable=0;points=[[0,0.5],[1,0.5]];portConstraint=eastwest;whiteSpace=wrap;html=1;" parent="XPo56Mp7-HnKYEz6nt2U-96" vertex="1"><mxGeometry y="610" width="330" height="54" as="geometry"/></mxCell><mxCell id="ehvPjeEVP9A8o2XFfIN3-14" value="+ Request for Process creating(string[]): attribute&lt;br&gt;Bunun içirisinde processManager kullanilacak." style="text;strokeColor=none;fillColor=none;align=left;verticalAlign=top;spacingLeft=4;spacingRight=4;overflow=hidden;rotatable=0;points=[[0,0.5],[1,0.5]];portConstraint=eastwest;whiteSpace=wrap;html=1;" parent="XPo56Mp7-HnKYEz6nt2U-96" vertex="1"><mxGeometry y="664" width="330" height="46" as="geometry"/></mxCell><mxCell id="ojoNzWy3ps6btbPR5Wlg-16" value="+ ReceivedCloseComputerSignal: attribute" style="text;strokeColor=none;fillColor=none;align=left;verticalAlign=top;spacingLeft=4;spacingRight=4;overflow=hidden;rotatable=0;points=[[0,0.5],[1,0.5]];portConstraint=eastwest;whiteSpace=wrap;html=1;" parent="XPo56Mp7-HnKYEz6nt2U-96" vertex="1"><mxGeometry y="710" width="330" height="26" as="geometry"/></mxCell><mxCell id="XPo56Mp7-HnKYEz6nt2U-105" value="PCB" style="swimlane;fontStyle=1;align=center;verticalAlign=top;childLayout=stackLayout;horizontal=1;startSize=26;horizontalStack=0;resizeParent=1;resizeParentMax=0;resizeLast=0;collapsible=1;marginBottom=0;whiteSpace=wrap;html=1;strokeColor=#FF6666;" parent="WIyWlLk6GJQsqaUBKTNV-1" vertex="1"><mxGeometry x="80" y="-169" width="290" height="398" as="geometry"/></mxCell><mxCell id="XPo56Mp7-HnKYEz6nt2U-106" value="- process state: string" style="text;strokeColor=#FF6666;fillColor=none;align=left;verticalAlign=top;spacingLeft=4;spacingRight=4;overflow=hidden;rotatable=0;points=[[0,0.5],[1,0.5]];portConstraint=eastwest;whiteSpace=wrap;html=1;" parent="XPo56Mp7-HnKYEz6nt2U-105" vertex="1"><mxGeometry y="26" width="290" height="26" as="geometry"/></mxCell><mxCell id="XPo56Mp7-HnKYEz6nt2U-109" value="- program counter: int&lt;br&gt;Sanki varmis gibi her saniye +10 olsun" style="text;strokeColor=none;fillColor=none;align=left;verticalAlign=top;spacingLeft=4;spacingRight=4;overflow=hidden;rotatable=0;points=[[0,0.5],[1,0.5]];portConstraint=eastwest;whiteSpace=wrap;html=1;" parent="XPo56Mp7-HnKYEz6nt2U-105" vertex="1"><mxGeometry y="52" width="290" height="38" as="geometry"/></mxCell><mxCell id="XPo56Mp7-HnKYEz6nt2U-110" value="- processID: int unique" style="text;strokeColor=none;fillColor=none;align=left;verticalAlign=top;spacingLeft=4;spacingRight=4;overflow=hidden;rotatable=0;points=[[0,0.5],[1,0.5]];portConstraint=eastwest;whiteSpace=wrap;html=1;" parent="XPo56Mp7-HnKYEz6nt2U-105" vertex="1"><mxGeometry y="90" width="290" height="26" as="geometry"/></mxCell><mxCell id="XPo56Mp7-HnKYEz6nt2U-113" value="- Memory occupied Page Table: Dictionary&amp;lt;int,int&amp;gt;&amp;nbsp;&lt;br&gt;Yani bir eşleşme söz konusu 0 numaralı mantıksal alan 21. frame'e karşılık geliyor gibi." style="text;strokeColor=none;fillColor=none;align=left;verticalAlign=top;spacingLeft=4;spacingRight=4;overflow=hidden;rotatable=0;points=[[0,0.5],[1,0.5]];portConstraint=eastwest;whiteSpace=wrap;html=1;" parent="XPo56Mp7-HnKYEz6nt2U-105" vertex="1"><mxGeometry y="116" width="290" height="54" as="geometry"/></mxCell><mxCell id="XPo56Mp7-HnKYEz6nt2U-114" value="- Calisma suresi Working time: int&lt;br&gt;20'saniyeden buyuk olaamaz unutma" style="text;strokeColor=none;fillColor=none;align=left;verticalAlign=top;spacingLeft=4;spacingRight=4;overflow=hidden;rotatable=0;points=[[0,0.5],[1,0.5]];portConstraint=eastwest;whiteSpace=wrap;html=1;" parent="XPo56Mp7-HnKYEz6nt2U-105" vertex="1"><mxGeometry y="170" width="290" height="40" as="geometry"/></mxCell><mxCell id="ehvPjeEVP9A8o2XFfIN3-77" value="- Process'e tahsis edilmis kaynaklar: List&amp;lt;IODevice&amp;gt;" style="text;strokeColor=none;fillColor=none;align=left;verticalAlign=top;spacingLeft=4;spacingRight=4;overflow=hidden;rotatable=0;points=[[0,0.5],[1,0.5]];portConstraint=eastwest;whiteSpace=wrap;html=1;" parent="XPo56Mp7-HnKYEz6nt2U-105" vertex="1"><mxGeometry y="210" width="290" height="30" as="geometry"/></mxCell><mxCell id="1" value="- estimated Working time of Process: int " style="text;strokeColor=none;fillColor=none;align=left;verticalAlign=top;spacingLeft=4;spacingRight=4;overflow=hidden;rotatable=0;points=[[0,0.5],[1,0.5]];portConstraint=eastwest;" parent="XPo56Mp7-HnKYEz6nt2U-105" vertex="1"><mxGeometry y="240" width="290" height="26" as="geometry"/></mxCell><mxCell id="0" value="- Arriving Time of  Process : int " style="text;strokeColor=none;fillColor=none;align=left;verticalAlign=top;spacingLeft=4;spacingRight=4;overflow=hidden;rotatable=0;points=[[0,0.5],[1,0.5]];portConstraint=eastwest;" parent="XPo56Mp7-HnKYEz6nt2U-105" vertex="1"><mxGeometry y="266" width="290" height="26" as="geometry"/></mxCell><mxCell id="ojoNzWy3ps6btbPR5Wlg-30" value="- processRenk: string" style="text;strokeColor=none;fillColor=none;align=left;verticalAlign=top;spacingLeft=4;spacingRight=4;overflow=hidden;rotatable=0;points=[[0,0.5],[1,0.5]];portConstraint=eastwest;whiteSpace=wrap;html=1;" parent="XPo56Mp7-HnKYEz6nt2U-105" vertex="1"><mxGeometry y="292" width="290" height="26" as="geometry"/></mxCell><mxCell id="XPo56Mp7-HnKYEz6nt2U-107" value="" style="line;strokeWidth=1;fillColor=none;align=left;verticalAlign=middle;spacingTop=-1;spacingLeft=3;spacingRight=3;rotatable=0;labelPosition=right;points=[];portConstraint=eastwest;strokeColor=inherit;" parent="XPo56Mp7-HnKYEz6nt2U-105" vertex="1"><mxGeometry y="318" width="290" height="8" as="geometry"/></mxCell><mxCell id="XPo56Mp7-HnKYEz6nt2U-108" value="+ getProcessID(): int&lt;br&gt;unique bir id olmali" style="text;strokeColor=none;fillColor=none;align=left;verticalAlign=top;spacingLeft=4;spacingRight=4;overflow=hidden;rotatable=0;points=[[0,0.5],[1,0.5]];portConstraint=eastwest;whiteSpace=wrap;html=1;" parent="XPo56Mp7-HnKYEz6nt2U-105" vertex="1"><mxGeometry y="326" width="290" height="46" as="geometry"/></mxCell><mxCell id="ojoNzWy3ps6btbPR5Wlg-23" value="Get ve set herbiri için" style="text;strokeColor=none;fillColor=none;align=left;verticalAlign=top;spacingLeft=4;spacingRight=4;overflow=hidden;rotatable=0;points=[[0,0.5],[1,0.5]];portConstraint=eastwest;whiteSpace=wrap;html=1;" parent="XPo56Mp7-HnKYEz6nt2U-105" vertex="1"><mxGeometry y="372" width="290" height="26" as="geometry"/></mxCell><mxCell id="XPo56Mp7-HnKYEz6nt2U-125" value="Publisher" style="swimlane;fontStyle=1;align=center;verticalAlign=top;childLayout=stackLayout;horizontal=1;startSize=26;horizontalStack=0;resizeParent=1;resizeParentMax=0;resizeLast=0;collapsible=1;marginBottom=0;whiteSpace=wrap;html=1;strokeColor=#994C00;" parent="WIyWlLk6GJQsqaUBKTNV-1" vertex="1"><mxGeometry x="195" y="852" width="210" height="140" as="geometry"/></mxCell><mxCell id="XPo56Mp7-HnKYEz6nt2U-126" value="- List&amp;lt;Subscribers&amp;gt;: Observer" style="text;strokeColor=none;fillColor=none;align=left;verticalAlign=top;spacingLeft=4;spacingRight=4;overflow=hidden;rotatable=0;points=[[0,0.5],[1,0.5]];portConstraint=eastwest;whiteSpace=wrap;html=1;" parent="XPo56Mp7-HnKYEz6nt2U-125" vertex="1"><mxGeometry y="26" width="210" height="26" as="geometry"/></mxCell><mxCell id="XPo56Mp7-HnKYEz6nt2U-127" value="" style="line;strokeWidth=1;fillColor=none;align=left;verticalAlign=middle;spacingTop=-1;spacingLeft=3;spacingRight=3;rotatable=0;labelPosition=right;points=[];portConstraint=eastwest;strokeColor=inherit;" parent="XPo56Mp7-HnKYEz6nt2U-125" vertex="1"><mxGeometry y="52" width="210" height="8" as="geometry"/></mxCell><mxCell id="XPo56Mp7-HnKYEz6nt2U-128" value="+ Attach(Observer):&amp;nbsp;" style="text;strokeColor=none;fillColor=none;align=left;verticalAlign=top;spacingLeft=4;spacingRight=4;overflow=hidden;rotatable=0;points=[[0,0.5],[1,0.5]];portConstraint=eastwest;whiteSpace=wrap;html=1;" parent="XPo56Mp7-HnKYEz6nt2U-125" vertex="1"><mxGeometry y="60" width="210" height="26" as="geometry"/></mxCell><mxCell id="ehvPjeEVP9A8o2XFfIN3-0" value="+ OurNotify(): void&amp;nbsp;&lt;br&gt;her bir saniye notify edecek içerisindeki bütün observer'ları" style="text;strokeColor=none;fillColor=none;align=left;verticalAlign=top;spacingLeft=4;spacingRight=4;overflow=hidden;rotatable=0;points=[[0,0.5],[1,0.5]];portConstraint=eastwest;whiteSpace=wrap;html=1;" parent="XPo56Mp7-HnKYEz6nt2U-125" vertex="1"><mxGeometry y="86" width="210" height="54" as="geometry"/></mxCell><mxCell id="ehvPjeEVP9A8o2XFfIN3-2" value="CPU" style="swimlane;fontStyle=1;align=center;verticalAlign=top;childLayout=stackLayout;horizontal=1;startSize=26;horizontalStack=0;resizeParent=1;resizeParentMax=0;resizeLast=0;collapsible=1;marginBottom=0;whiteSpace=wrap;html=1;strokeColor=#3399FF;" parent="WIyWlLk6GJQsqaUBKTNV-1" vertex="1"><mxGeometry x="1350" y="350" width="210" height="304" as="geometry"/></mxCell><mxCell id="ojoNzWy3ps6btbPR5Wlg-10" value="+ ProcessInCpu: Process" style="text;strokeColor=#3399FF;fillColor=none;align=left;verticalAlign=top;spacingLeft=4;spacingRight=4;overflow=hidden;rotatable=0;points=[[0,0.5],[1,0.5]];portConstraint=eastwest;whiteSpace=wrap;html=1;" parent="ehvPjeEVP9A8o2XFfIN3-2" vertex="1"><mxGeometry y="26" width="210" height="26" as="geometry"/></mxCell><mxCell id="ojoNzWy3ps6btbPR5Wlg-14" value="- close signal Counter: int&lt;br&gt;Counter proces'in boşta geçirdiği zamanı ehsaplayacak 5 zaman tick'i boyunca boşta geçerse kapatma sinyali gödnerecek&amp;nbsp;" style="text;strokeColor=none;fillColor=none;align=left;verticalAlign=top;spacingLeft=4;spacingRight=4;overflow=hidden;rotatable=0;points=[[0,0.5],[1,0.5]];portConstraint=eastwest;whiteSpace=wrap;html=1;" parent="ehvPjeEVP9A8o2XFfIN3-2" vertex="1"><mxGeometry y="52" width="210" height="84" as="geometry"/></mxCell><mxCell id="ojoNzWy3ps6btbPR5Wlg-24" value="- RAM: IRAM" style="text;strokeColor=none;fillColor=none;align=left;verticalAlign=top;spacingLeft=4;spacingRight=4;overflow=hidden;rotatable=0;points=[[0,0.5],[1,0.5]];portConstraint=eastwest;whiteSpace=wrap;html=1;" parent="ehvPjeEVP9A8o2XFfIN3-2" vertex="1"><mxGeometry y="136" width="210" height="26" as="geometry"/></mxCell><mxCell id="ojoNzWy3ps6btbPR5Wlg-28" value="- Ekran: attribute" style="text;strokeColor=none;fillColor=none;align=left;verticalAlign=top;spacingLeft=4;spacingRight=4;overflow=hidden;rotatable=0;points=[[0,0.5],[1,0.5]];portConstraint=eastwest;whiteSpace=wrap;html=1;" parent="ehvPjeEVP9A8o2XFfIN3-2" vertex="1"><mxGeometry y="162" width="210" height="26" as="geometry"/></mxCell><mxCell id="ehvPjeEVP9A8o2XFfIN3-4" value="" style="line;strokeWidth=1;fillColor=none;align=left;verticalAlign=middle;spacingTop=-1;spacingLeft=3;spacingRight=3;rotatable=0;labelPosition=right;points=[];portConstraint=eastwest;strokeColor=inherit;" parent="ehvPjeEVP9A8o2XFfIN3-2" vertex="1"><mxGeometry y="188" width="210" height="8" as="geometry"/></mxCell><mxCell id="ehvPjeEVP9A8o2XFfIN3-5" value="- Execute(Process): void&lt;br&gt;Ekrana yazdirma islemini execute edecek. Counter'ı arttıracak eğer process yerine null gelirse. 5 kere bu olursa kapatma sinyali gönderecek" style="text;strokeColor=none;fillColor=none;align=left;verticalAlign=top;spacingLeft=4;spacingRight=4;overflow=hidden;rotatable=0;points=[[0,0.5],[1,0.5]];portConstraint=eastwest;whiteSpace=wrap;html=1;" parent="ehvPjeEVP9A8o2XFfIN3-2" vertex="1"><mxGeometry y="196" width="210" height="82" as="geometry"/></mxCell><mxCell id="ojoNzWy3ps6btbPR5Wlg-15" value="+ getProcessinExecution(): Process" style="text;strokeColor=none;fillColor=none;align=left;verticalAlign=top;spacingLeft=4;spacingRight=4;overflow=hidden;rotatable=0;points=[[0,0.5],[1,0.5]];portConstraint=eastwest;whiteSpace=wrap;html=1;" parent="ehvPjeEVP9A8o2XFfIN3-2" vertex="1"><mxGeometry y="278" width="210" height="26" as="geometry"/></mxCell><mxCell id="ehvPjeEVP9A8o2XFfIN3-7" value="User" style="swimlane;fontStyle=1;align=center;verticalAlign=top;childLayout=stackLayout;horizontal=1;startSize=26;horizontalStack=0;resizeParent=1;resizeParentMax=0;resizeLast=0;collapsible=1;marginBottom=0;whiteSpace=wrap;html=1;strokeColor=#994C00;" parent="WIyWlLk6GJQsqaUBKTNV-1" vertex="1"><mxGeometry x="-1060" y="470" width="380" height="238" as="geometry"/></mxCell><mxCell id="ehvPjeEVP9A8o2XFfIN3-8" value="- texttenOku: ITexttenOku" style="text;strokeColor=none;fillColor=none;align=left;verticalAlign=top;spacingLeft=4;spacingRight=4;overflow=hidden;rotatable=0;points=[[0,0.5],[1,0.5]];portConstraint=eastwest;whiteSpace=wrap;html=1;" parent="ehvPjeEVP9A8o2XFfIN3-7" vertex="1"><mxGeometry y="26" width="380" height="26" as="geometry"/></mxCell><mxCell id="ojoNzWy3ps6btbPR5Wlg-4" value="- Bilgisayar: Bilgisayar" style="text;strokeColor=none;fillColor=none;align=left;verticalAlign=top;spacingLeft=4;spacingRight=4;overflow=hidden;rotatable=0;points=[[0,0.5],[1,0.5]];portConstraint=eastwest;whiteSpace=wrap;html=1;" parent="ehvPjeEVP9A8o2XFfIN3-7" vertex="1"><mxGeometry y="52" width="380" height="26" as="geometry"/></mxCell><mxCell id="ehvPjeEVP9A8o2XFfIN3-9" value="" style="line;strokeWidth=1;fillColor=none;align=left;verticalAlign=middle;spacingTop=-1;spacingLeft=3;spacingRight=3;rotatable=0;labelPosition=right;points=[];portConstraint=eastwest;strokeColor=inherit;" parent="ehvPjeEVP9A8o2XFfIN3-7" vertex="1"><mxGeometry y="78" width="380" height="8" as="geometry"/></mxCell><mxCell id="ojoNzWy3ps6btbPR5Wlg-1" value="+ StartComputer(): void" style="text;strokeColor=none;fillColor=none;align=left;verticalAlign=top;spacingLeft=4;spacingRight=4;overflow=hidden;rotatable=0;points=[[0,0.5],[1,0.5]];portConstraint=eastwest;whiteSpace=wrap;html=1;" parent="ehvPjeEVP9A8o2XFfIN3-7" vertex="1"><mxGeometry y="86" width="380" height="26" as="geometry"/></mxCell><mxCell id="ojoNzWy3ps6btbPR5Wlg-2" value="+ CloseComputer(): bool" style="text;strokeColor=none;fillColor=none;align=left;verticalAlign=top;spacingLeft=4;spacingRight=4;overflow=hidden;rotatable=0;points=[[0,0.5],[1,0.5]];portConstraint=eastwest;whiteSpace=wrap;html=1;" parent="ehvPjeEVP9A8o2XFfIN3-7" vertex="1"><mxGeometry y="112" width="380" height="26" as="geometry"/></mxCell><mxCell id="ehvPjeEVP9A8o2XFfIN3-11" value="- Check Process is can be created based on its arriving time(): Eğer böyleyse send request&lt;br&gt;Her bir zaman modülü tick'inde publisher tarafindan tetiklelenecek" style="text;strokeColor=none;fillColor=none;align=left;verticalAlign=top;spacingLeft=4;spacingRight=4;overflow=hidden;rotatable=0;points=[[0,0.5],[1,0.5]];portConstraint=eastwest;whiteSpace=wrap;html=1;" parent="ehvPjeEVP9A8o2XFfIN3-7" vertex="1"><mxGeometry y="138" width="380" height="60" as="geometry"/></mxCell><mxCell id="ehvPjeEVP9A8o2XFfIN3-15" value="- SendRequest to OS,&amp;nbsp; System call for process creating(string[]): void&amp;nbsp;" style="text;strokeColor=none;fillColor=none;align=left;verticalAlign=top;spacingLeft=4;spacingRight=4;overflow=hidden;rotatable=0;points=[[0,0.5],[1,0.5]];portConstraint=eastwest;whiteSpace=wrap;html=1;" parent="ehvPjeEVP9A8o2XFfIN3-7" vertex="1"><mxGeometry y="198" width="380" height="40" as="geometry"/></mxCell><mxCell id="ehvPjeEVP9A8o2XFfIN3-16" value="&lt;p style=&quot;margin:0px;margin-top:4px;text-align:center;&quot;&gt;&lt;i&gt;&amp;lt;&amp;lt;Interface&amp;gt;&amp;gt;&lt;/i&gt;&lt;br&gt;&lt;b&gt;Observer&lt;/b&gt;&lt;/p&gt;&lt;hr size=&quot;1&quot;&gt;&lt;p style=&quot;margin:0px;margin-left:4px;&quot;&gt;+ update(): void&lt;br&gt;&lt;/p&gt;" style="verticalAlign=top;align=left;overflow=fill;fontSize=12;fontFamily=Helvetica;html=1;whiteSpace=wrap;strokeColor=#994C00;" parent="WIyWlLk6GJQsqaUBKTNV-1" vertex="1"><mxGeometry x="195" y="730" width="190" height="74" as="geometry"/></mxCell><mxCell id="ehvPjeEVP9A8o2XFfIN3-27" value="Zaman Modülü&lt;br&gt;Biz kendi zamanımızı olusturacagiz&amp;nbsp;" style="swimlane;fontStyle=1;align=center;verticalAlign=top;childLayout=stackLayout;horizontal=1;startSize=40;horizontalStack=0;resizeParent=1;resizeParentMax=0;resizeLast=0;collapsible=1;marginBottom=0;whiteSpace=wrap;html=1;strokeColor=#994C00;" parent="WIyWlLk6GJQsqaUBKTNV-1" vertex="1"><mxGeometry x="-80" y="800" width="210" height="256" as="geometry"/></mxCell><mxCell id="ehvPjeEVP9A8o2XFfIN3-28" value="- dakika: int" style="text;strokeColor=none;fillColor=none;align=left;verticalAlign=top;spacingLeft=4;spacingRight=4;overflow=hidden;rotatable=0;points=[[0,0.5],[1,0.5]];portConstraint=eastwest;whiteSpace=wrap;html=1;" parent="ehvPjeEVP9A8o2XFfIN3-27" vertex="1"><mxGeometry y="40" width="210" height="30" as="geometry"/></mxCell><mxCell id="ehvPjeEVP9A8o2XFfIN3-31" value="- saniye: int" style="text;strokeColor=none;fillColor=none;align=left;verticalAlign=top;spacingLeft=4;spacingRight=4;overflow=hidden;rotatable=0;points=[[0,0.5],[1,0.5]];portConstraint=eastwest;whiteSpace=wrap;html=1;" parent="ehvPjeEVP9A8o2XFfIN3-27" vertex="1"><mxGeometry y="70" width="210" height="26" as="geometry"/></mxCell><mxCell id="ehvPjeEVP9A8o2XFfIN3-32" value="- saat: int" style="text;strokeColor=none;fillColor=none;align=left;verticalAlign=top;spacingLeft=4;spacingRight=4;overflow=hidden;rotatable=0;points=[[0,0.5],[1,0.5]];portConstraint=eastwest;whiteSpace=wrap;html=1;" parent="ehvPjeEVP9A8o2XFfIN3-27" vertex="1"><mxGeometry y="96" width="210" height="26" as="geometry"/></mxCell><mxCell id="ehvPjeEVP9A8o2XFfIN3-29" value="" style="line;strokeWidth=1;fillColor=none;align=left;verticalAlign=middle;spacingTop=-1;spacingLeft=3;spacingRight=3;rotatable=0;labelPosition=right;points=[];portConstraint=eastwest;strokeColor=inherit;" parent="ehvPjeEVP9A8o2XFfIN3-27" vertex="1"><mxGeometry y="122" width="210" height="8" as="geometry"/></mxCell><mxCell id="ehvPjeEVP9A8o2XFfIN3-33" value="+ start(): void&lt;br&gt;saniyeyi 1arttır. Her zaman arttiginda notify'ı calistir." style="text;strokeColor=none;fillColor=none;align=left;verticalAlign=top;spacingLeft=4;spacingRight=4;overflow=hidden;rotatable=0;points=[[0,0.5],[1,0.5]];portConstraint=eastwest;whiteSpace=wrap;html=1;" parent="ehvPjeEVP9A8o2XFfIN3-27" vertex="1"><mxGeometry y="130" width="210" height="50" as="geometry"/></mxCell><mxCell id="ojoNzWy3ps6btbPR5Wlg-12" value="+ stop(): void" style="text;strokeColor=none;fillColor=none;align=left;verticalAlign=top;spacingLeft=4;spacingRight=4;overflow=hidden;rotatable=0;points=[[0,0.5],[1,0.5]];portConstraint=eastwest;whiteSpace=wrap;html=1;" parent="ehvPjeEVP9A8o2XFfIN3-27" vertex="1"><mxGeometry y="180" width="210" height="26" as="geometry"/></mxCell><mxCell id="ehvPjeEVP9A8o2XFfIN3-30" value="+ zaman():&amp;nbsp; string&amp;nbsp; -&amp;gt;00:00:00&lt;br&gt;Static olabilir" style="text;strokeColor=none;fillColor=none;align=left;verticalAlign=top;spacingLeft=4;spacingRight=4;overflow=hidden;rotatable=0;points=[[0,0.5],[1,0.5]];portConstraint=eastwest;whiteSpace=wrap;html=1;" parent="ehvPjeEVP9A8o2XFfIN3-27" vertex="1"><mxGeometry y="206" width="210" height="50" as="geometry"/></mxCell><mxCell id="ehvPjeEVP9A8o2XFfIN3-34" value="Process Manager" style="swimlane;fontStyle=1;align=center;verticalAlign=top;childLayout=stackLayout;horizontal=1;startSize=26;horizontalStack=0;resizeParent=1;resizeParentMax=0;resizeLast=0;collapsible=1;marginBottom=0;whiteSpace=wrap;html=1;strokeColor=#FF3333;" parent="WIyWlLk6GJQsqaUBKTNV-1" vertex="1"><mxGeometry x="-970" y="766" width="310" height="268" as="geometry"/></mxCell><mxCell id="ehvPjeEVP9A8o2XFfIN3-35" value="- RAM: IRAM&amp;nbsp;" style="text;strokeColor=none;fillColor=none;align=left;verticalAlign=top;spacingLeft=4;spacingRight=4;overflow=hidden;rotatable=0;points=[[0,0.5],[1,0.5]];portConstraint=eastwest;whiteSpace=wrap;html=1;" parent="ehvPjeEVP9A8o2XFfIN3-34" vertex="1"><mxGeometry y="26" width="310" height="26" as="geometry"/></mxCell><mxCell id="ehvPjeEVP9A8o2XFfIN3-36" value="" style="line;strokeWidth=1;fillColor=none;align=left;verticalAlign=middle;spacingTop=-1;spacingLeft=3;spacingRight=3;rotatable=0;labelPosition=right;points=[];portConstraint=eastwest;strokeColor=inherit;" parent="ehvPjeEVP9A8o2XFfIN3-34" vertex="1"><mxGeometry y="52" width="310" height="8" as="geometry"/></mxCell><mxCell id="ehvPjeEVP9A8o2XFfIN3-37" value="- CheckStatus(I/O Device): bool" style="text;strokeColor=none;fillColor=none;align=left;verticalAlign=top;spacingLeft=4;spacingRight=4;overflow=hidden;rotatable=0;points=[[0,0.5],[1,0.5]];portConstraint=eastwest;whiteSpace=wrap;html=1;" parent="ehvPjeEVP9A8o2XFfIN3-34" vertex="1"><mxGeometry y="60" width="310" height="26" as="geometry"/></mxCell><mxCell id="ehvPjeEVP9A8o2XFfIN3-68" value="+ Allocate I/O device and Ram(Process): bool&lt;br&gt;Eğerki allocate edebilirsen PCB güncelle" style="text;strokeColor=none;fillColor=none;align=left;verticalAlign=top;spacingLeft=4;spacingRight=4;overflow=hidden;rotatable=0;points=[[0,0.5],[1,0.5]];portConstraint=eastwest;whiteSpace=wrap;html=1;" parent="ehvPjeEVP9A8o2XFfIN3-34" vertex="1"><mxGeometry y="86" width="310" height="44" as="geometry"/></mxCell><mxCell id="ehvPjeEVP9A8o2XFfIN3-69" value="- GivingUniqueProcessID(): int" style="text;strokeColor=none;fillColor=none;align=left;verticalAlign=top;spacingLeft=4;spacingRight=4;overflow=hidden;rotatable=0;points=[[0,0.5],[1,0.5]];portConstraint=eastwest;whiteSpace=wrap;html=1;" parent="ehvPjeEVP9A8o2XFfIN3-34" vertex="1"><mxGeometry y="130" width="310" height="26" as="geometry"/></mxCell><mxCell id="ehvPjeEVP9A8o2XFfIN3-70" value="+ ProcessOlustur Create Process(string[]): Process&amp;nbsp;&lt;br&gt;Her türlü process oluştur eğer hazırsa çizelgeleyici ile uygun yere yerleştir. Değilse waiting queue'ya yerleştir.&amp;nbsp; sendAppropiateQueue methodu çağırılacak burdan dönecek olan process için işletim sistemleri sınıfı içinde" style="text;strokeColor=none;fillColor=none;align=left;verticalAlign=top;spacingLeft=4;spacingRight=4;overflow=hidden;rotatable=0;points=[[0,0.5],[1,0.5]];portConstraint=eastwest;whiteSpace=wrap;html=1;" parent="ehvPjeEVP9A8o2XFfIN3-34" vertex="1"><mxGeometry y="156" width="310" height="112" as="geometry"/></mxCell><mxCell id="ehvPjeEVP9A8o2XFfIN3-42" value="Ram Frames" style="swimlane;fontStyle=1;align=center;verticalAlign=top;childLayout=stackLayout;horizontal=1;startSize=26;horizontalStack=0;resizeParent=1;resizeParentMax=0;resizeLast=0;collapsible=1;marginBottom=0;whiteSpace=wrap;html=1;strokeColor=#FF3333;" parent="WIyWlLk6GJQsqaUBKTNV-1" vertex="1"><mxGeometry x="-140" y="-60" width="160" height="120" as="geometry"/></mxCell><mxCell id="ehvPjeEVP9A8o2XFfIN3-43" value="- perMByte: bool [8]&lt;br&gt;her page 8 MBtye tutacak" style="text;strokeColor=#FF6666;fillColor=none;align=left;verticalAlign=top;spacingLeft=4;spacingRight=4;overflow=hidden;rotatable=0;points=[[0,0.5],[1,0.5]];portConstraint=eastwest;whiteSpace=wrap;html=1;" parent="ehvPjeEVP9A8o2XFfIN3-42" vertex="1"><mxGeometry y="26" width="160" height="34" as="geometry"/></mxCell><mxCell id="ehvPjeEVP9A8o2XFfIN3-44" value="" style="line;strokeWidth=1;fillColor=none;align=left;verticalAlign=middle;spacingTop=-1;spacingLeft=3;spacingRight=3;rotatable=0;labelPosition=right;points=[];portConstraint=eastwest;strokeColor=inherit;" parent="ehvPjeEVP9A8o2XFfIN3-42" vertex="1"><mxGeometry y="60" width="160" height="8" as="geometry"/></mxCell><mxCell id="ehvPjeEVP9A8o2XFfIN3-45" value="+ FrameDoldur(int): void" style="text;strokeColor=none;fillColor=none;align=left;verticalAlign=top;spacingLeft=4;spacingRight=4;overflow=hidden;rotatable=0;points=[[0,0.5],[1,0.5]];portConstraint=eastwest;whiteSpace=wrap;html=1;" parent="ehvPjeEVP9A8o2XFfIN3-42" vertex="1"><mxGeometry y="68" width="160" height="26" as="geometry"/></mxCell><mxCell id="ojoNzWy3ps6btbPR5Wlg-31" value="+ FrameBosalt() : void" style="text;strokeColor=none;fillColor=none;align=left;verticalAlign=top;spacingLeft=4;spacingRight=4;overflow=hidden;rotatable=0;points=[[0,0.5],[1,0.5]];portConstraint=eastwest;whiteSpace=wrap;html=1;" parent="ehvPjeEVP9A8o2XFfIN3-42" vertex="1"><mxGeometry y="94" width="160" height="26" as="geometry"/></mxCell><mxCell id="ehvPjeEVP9A8o2XFfIN3-59" value="Program.cs" style="swimlane;fontStyle=1;align=center;verticalAlign=top;childLayout=stackLayout;horizontal=1;startSize=26;horizontalStack=0;resizeParent=1;resizeParentMax=0;resizeLast=0;collapsible=1;marginBottom=0;whiteSpace=wrap;html=1;strokeColor=#994C00;" parent="WIyWlLk6GJQsqaUBKTNV-1" vertex="1"><mxGeometry x="-1510" y="150" width="160" height="86" as="geometry"/></mxCell><mxCell id="ehvPjeEVP9A8o2XFfIN3-60" value="+ field: type" style="text;strokeColor=none;fillColor=none;align=left;verticalAlign=top;spacingLeft=4;spacingRight=4;overflow=hidden;rotatable=0;points=[[0,0.5],[1,0.5]];portConstraint=eastwest;whiteSpace=wrap;html=1;" parent="ehvPjeEVP9A8o2XFfIN3-59" vertex="1"><mxGeometry y="26" width="160" height="26" as="geometry"/></mxCell><mxCell id="ehvPjeEVP9A8o2XFfIN3-61" value="" style="line;strokeWidth=1;fillColor=none;align=left;verticalAlign=middle;spacingTop=-1;spacingLeft=3;spacingRight=3;rotatable=0;labelPosition=right;points=[];portConstraint=eastwest;strokeColor=inherit;" parent="ehvPjeEVP9A8o2XFfIN3-59" vertex="1"><mxGeometry y="52" width="160" height="8" as="geometry"/></mxCell><mxCell id="ehvPjeEVP9A8o2XFfIN3-62" value="+ Main(): void" style="text;strokeColor=none;fillColor=none;align=left;verticalAlign=top;spacingLeft=4;spacingRight=4;overflow=hidden;rotatable=0;points=[[0,0.5],[1,0.5]];portConstraint=eastwest;whiteSpace=wrap;html=1;" parent="ehvPjeEVP9A8o2XFfIN3-59" vertex="1"><mxGeometry y="60" width="160" height="26" as="geometry"/></mxCell><mxCell id="ehvPjeEVP9A8o2XFfIN3-98" value="&lt;p style=&quot;margin:0px;margin-top:4px;text-align:center;&quot;&gt;&lt;i&gt;&amp;lt;&amp;lt;Interface&amp;gt;&amp;gt;&lt;/i&gt;&lt;br&gt;&lt;b&gt;IModem&lt;/b&gt;&lt;/p&gt;&lt;hr size=&quot;1&quot;&gt;&lt;p style=&quot;margin:0px;margin-left:4px;&quot;&gt;&amp;nbsp;&lt;/p&gt;" style="verticalAlign=top;align=left;overflow=fill;fontSize=12;fontFamily=Helvetica;html=1;whiteSpace=wrap;strokeColor=#FF0080;" parent="WIyWlLk6GJQsqaUBKTNV-1" vertex="1"><mxGeometry x="-648" y="-550" width="178" height="110" as="geometry"/></mxCell><mxCell id="ehvPjeEVP9A8o2XFfIN3-100" value="&lt;font style=&quot;font-size: 24px;&quot;&gt;Hepsi birbirinin interface'ini kullanacak ve dependency injection ile bunları alacak&lt;/font&gt;" style="text;html=1;align=center;verticalAlign=middle;resizable=0;points=[];autosize=1;strokeColor=none;fillColor=none;" parent="WIyWlLk6GJQsqaUBKTNV-1" vertex="1"><mxGeometry x="-1590" y="-430" width="880" height="40" as="geometry"/></mxCell><mxCell id="ehvPjeEVP9A8o2XFfIN3-105" value="OSFactory" style="swimlane;fontStyle=1;align=center;verticalAlign=top;childLayout=stackLayout;horizontal=1;startSize=26;horizontalStack=0;resizeParent=1;resizeParentMax=0;resizeLast=0;collapsible=1;marginBottom=0;whiteSpace=wrap;html=1;strokeColor=#994C00;" parent="WIyWlLk6GJQsqaUBKTNV-1" vertex="1"><mxGeometry x="-1180" y="150" width="240" height="60" as="geometry"/></mxCell><mxCell id="ehvPjeEVP9A8o2XFfIN3-107" value="" style="line;strokeWidth=1;fillColor=none;align=left;verticalAlign=middle;spacingTop=-1;spacingLeft=3;spacingRight=3;rotatable=0;labelPosition=right;points=[];portConstraint=eastwest;strokeColor=inherit;" parent="ehvPjeEVP9A8o2XFfIN3-105" vertex="1"><mxGeometry y="26" width="240" height="8" as="geometry"/></mxCell><mxCell id="ehvPjeEVP9A8o2XFfIN3-108" value="+ factoryMethod(): IOperatingSystem" style="text;strokeColor=none;fillColor=none;align=left;verticalAlign=top;spacingLeft=4;spacingRight=4;overflow=hidden;rotatable=0;points=[[0,0.5],[1,0.5]];portConstraint=eastwest;whiteSpace=wrap;html=1;" parent="ehvPjeEVP9A8o2XFfIN3-105" vertex="1"><mxGeometry y="34" width="240" height="26" as="geometry"/></mxCell><mxCell id="ojoNzWy3ps6btbPR5Wlg-5" value="Bilgisayar factory&lt;br&gt;" style="swimlane;fontStyle=1;align=center;verticalAlign=top;childLayout=stackLayout;horizontal=1;startSize=26;horizontalStack=0;resizeParent=1;resizeParentMax=0;resizeLast=0;collapsible=1;marginBottom=0;whiteSpace=wrap;html=1;strokeColor=#994C00;" parent="WIyWlLk6GJQsqaUBKTNV-1" vertex="1"><mxGeometry x="-1170" y="266" width="270" height="86" as="geometry"/></mxCell><mxCell id="ojoNzWy3ps6btbPR5Wlg-6" value="+ field: type" style="text;strokeColor=none;fillColor=none;align=left;verticalAlign=top;spacingLeft=4;spacingRight=4;overflow=hidden;rotatable=0;points=[[0,0.5],[1,0.5]];portConstraint=eastwest;whiteSpace=wrap;html=1;" parent="ojoNzWy3ps6btbPR5Wlg-5" vertex="1"><mxGeometry y="26" width="270" height="26" as="geometry"/></mxCell><mxCell id="ojoNzWy3ps6btbPR5Wlg-7" value="" style="line;strokeWidth=1;fillColor=none;align=left;verticalAlign=middle;spacingTop=-1;spacingLeft=3;spacingRight=3;rotatable=0;labelPosition=right;points=[];portConstraint=eastwest;strokeColor=inherit;" parent="ojoNzWy3ps6btbPR5Wlg-5" vertex="1"><mxGeometry y="52" width="270" height="8" as="geometry"/></mxCell><mxCell id="ojoNzWy3ps6btbPR5Wlg-8" value="+ factoryMethod(): Bilgisayar" style="text;strokeColor=none;fillColor=none;align=left;verticalAlign=top;spacingLeft=4;spacingRight=4;overflow=hidden;rotatable=0;points=[[0,0.5],[1,0.5]];portConstraint=eastwest;whiteSpace=wrap;html=1;" parent="ojoNzWy3ps6btbPR5Wlg-5" vertex="1"><mxGeometry y="60" width="270" height="26" as="geometry"/></mxCell></root></mxGraphModel></diagram></mxfile>